<svg width="20.000000" height="20.000000" viewBox="0 0 20 20" fill="none" xmlns="http://www.w3.org/2000/svg" xmlns:xlink="http://www.w3.org/1999/xlink">
	<desc>
			Created with Pixso.
	</desc>
	<defs>
		<clipPath id="clip88_1080">
			<rect id="Icon/Outline/download" width="20.000000" height="20.000000" fill="white" fill-opacity="0"/>
		</clipPath>
	</defs>
	<g clip-path="url(#clip88_1080)">
		<path id="Icon (Stroke)" d="M4.16 14.16C4.16 15.08 4.91 15.83 5.83 15.83L14.16 15.83C15.08 15.83 15.83 15.08 15.83 14.16L15.83 13.33C15.83 12.87 16.2 12.5 16.66 12.5C17.12 12.5 17.5 12.87 17.5 13.33L17.5 14.16C17.5 16 16 17.5 14.16 17.5L5.83 17.5C3.99 17.5 2.5 16 2.5 14.16L2.5 13.33C2.5 12.87 2.87 12.5 3.33 12.5C3.79 12.5 4.16 12.87 4.16 13.33L4.16 14.16ZM6.07 9.41C6.4 9.08 6.93 9.08 7.25 9.41L9.16 11.32L9.16 3.33C9.16 2.87 9.53 2.5 10 2.5C10.46 2.5 10.83 2.87 10.83 3.33L10.83 11.32L12.74 9.41C13.06 9.08 13.59 9.08 13.92 9.41C14.24 9.73 14.24 10.26 13.92 10.58L10.58 13.92C10.26 14.24 9.73 14.24 9.41 13.92L6.07 10.58C5.75 10.26 5.75 9.73 6.07 9.41Z" fill="#0F172A" fill-opacity="1.000000" fill-rule="evenodd"/>
	</g>
</svg>
