<svg width="18.000000" height="18.000000" viewBox="0 0 18 18" fill="none" xmlns="http://www.w3.org/2000/svg" xmlns:xlink="http://www.w3.org/1999/xlink">
	<desc>
			Created with Pixso.
	</desc>
	<defs>
		<clipPath id="clip237_1535">
			<rect id="Icon/Outline/search" width="18.000000" height="18.000000" fill="white" fill-opacity="0"/>
		</clipPath>
	</defs>
	<g clip-path="url(#clip237_1535)">
		<path id="Icon (Stroke)" d="M7.5 3C5.01 3 3 5.01 3 7.5C3 9.98 5.01 12 7.5 12C9.98 12 12 9.98 12 7.5C12 5.01 9.98 3 7.5 3ZM1.5 7.5C1.5 4.18 4.18 1.5 7.5 1.5C10.81 1.5 13.5 4.18 13.5 7.5C13.5 8.88 13.02 10.16 12.24 11.17L16.28 15.21C16.57 15.51 16.57 15.98 16.28 16.28C15.98 16.57 15.51 16.57 15.21 16.28L11.17 12.23C10.16 13.02 8.88 13.5 7.5 13.5C4.18 13.5 1.5 10.81 1.5 7.5Z" fill="#8D8D8D" fill-opacity="1.000000" fill-rule="evenodd"/>
		<path id="Icon (Stroke)" d="M7.5 3C5.01 3 3 5.01 3 7.5C3 9.98 5.01 12 7.5 12C9.98 12 12 9.98 12 7.5C12 5.01 9.98 3 7.5 3ZM1.5 7.5C1.5 4.18 4.18 1.5 7.5 1.5C10.81 1.5 13.5 4.18 13.5 7.5C13.5 8.88 13.02 10.16 12.24 11.17L16.28 15.21C16.57 15.51 16.57 15.98 16.28 16.28C15.98 16.57 15.51 16.57 15.21 16.28L11.17 12.23C10.16 13.02 8.88 13.5 7.5 13.5C4.18 13.5 1.5 10.81 1.5 7.5Z" fill="#000000" fill-opacity="0.200000" fill-rule="evenodd"/>
		<path id="Icon (Stroke)" d="M7.5 3C5.01 3 3 5.01 3 7.5C3 9.98 5.01 12 7.5 12C9.98 12 12 9.98 12 7.5C12 5.01 9.98 3 7.5 3ZM1.5 7.5C1.5 4.18 4.18 1.5 7.5 1.5C10.81 1.5 13.5 4.18 13.5 7.5C13.5 8.88 13.02 10.16 12.24 11.17L16.28 15.21C16.57 15.51 16.57 15.98 16.28 16.28C15.98 16.57 15.51 16.57 15.21 16.28L11.17 12.23C10.16 13.02 8.88 13.5 7.5 13.5C4.18 13.5 1.5 10.81 1.5 7.5Z" fill="#000000" fill-opacity="0.200000" fill-rule="evenodd"/>
	</g>
</svg>
