<svg width="20.000000" height="20.000000" viewBox="0 0 20 20" fill="none" xmlns="http://www.w3.org/2000/svg" xmlns:xlink="http://www.w3.org/1999/xlink">
	<desc>
			Created with Pixso.
	</desc>
	<defs>
		<clipPath id="clip6_2642">
			<rect id="Icon/Outline/user-group" width="20.000000" height="20.000000" fill="white" fill-opacity="0"/>
		</clipPath>
	</defs>
	<g clip-path="url(#clip6_2642)">
		<path id="Icon" d="M10 8.33C8.61 8.33 7.5 7.21 7.5 5.83C7.5 4.45 8.61 3.33 10 3.33C11.38 3.33 12.5 4.45 12.5 5.83C12.5 7.21 11.38 8.33 10 8.33ZM15.83 10C14.91 10 14.16 9.25 14.16 8.33C14.16 7.41 14.91 6.66 15.83 6.66C16.75 6.66 17.5 7.41 17.5 8.33C17.5 9.25 16.75 10 15.83 10ZM4.16 10C3.24 10 2.5 9.25 2.5 8.33C2.5 7.41 3.24 6.66 4.16 6.66C5.08 6.66 5.83 7.41 5.83 8.33C5.83 9.25 5.08 10 4.16 10ZM13.86 13.45C14.32 12.87 15.03 12.5 15.83 12.5C17.21 12.5 18.33 13.61 18.33 15L18.33 16.66L14.16 16.66L5.83 16.66L1.66 16.66L1.66 15C1.66 13.61 2.78 12.5 4.16 12.5C4.96 12.5 5.67 12.87 6.13 13.45M14.16 16.66L14.16 15C14.16 14.45 14.06 13.93 13.86 13.45C13.25 11.91 11.75 10.83 10 10.83C8.24 10.83 6.74 11.91 6.13 13.45C5.93 13.93 5.83 14.45 5.83 15L5.83 16.66" stroke="#000000" stroke-opacity="1.000000" stroke-width="1.500000" stroke-linejoin="round"/>
	</g>
</svg>
