<svg width="20.000000" height="20.000000" viewBox="0 0 20 20" fill="none" xmlns="http://www.w3.org/2000/svg" xmlns:xlink="http://www.w3.org/1999/xlink">
	<desc>
			Created with Pixso.
	</desc>
	<defs>
		<clipPath id="clip6_2577">
			<rect id="Icon/Outline/view-grid" width="20.000000" height="20.000000" transform=" rotate(-0.000000)" fill="white" fill-opacity="0"/>
		</clipPath>
	</defs>
	<g clip-path="url(#clip6_2577)">
		<path id="Icon (Stroke)" d="M2.5 5C2.5 3.61 3.61 2.5 5 2.5L6.66 2.5C8.04 2.5 9.16 3.61 9.16 5L9.16 6.66C9.16 8.04 8.04 9.16 6.66 9.16L5 9.16C3.61 9.16 2.5 8.04 2.5 6.66L2.5 5ZM5 4.16C4.53 4.16 4.16 4.53 4.16 5L4.16 6.66C4.16 7.12 4.53 7.5 5 7.5L6.66 7.5C7.12 7.5 7.5 7.12 7.5 6.66L7.5 5C7.5 4.53 7.12 4.16 6.66 4.16L5 4.16ZM10.83 5C10.83 3.61 11.95 2.5 13.33 2.5L15 2.5C16.38 2.5 17.5 3.61 17.5 5L17.5 6.66C17.5 8.04 16.38 9.16 15 9.16L13.33 9.16C11.95 9.16 10.83 8.04 10.83 6.66L10.83 5ZM13.33 4.16C12.87 4.16 12.5 4.53 12.5 5L12.5 6.66C12.5 7.12 12.87 7.5 13.33 7.5L15 7.5C15.46 7.5 15.83 7.12 15.83 6.66L15.83 5C15.83 4.53 15.46 4.16 15 4.16L13.33 4.16ZM2.5 13.33C2.5 11.95 3.61 10.83 5 10.83L6.66 10.83C8.04 10.83 9.16 11.95 9.16 13.33L9.16 15C9.16 16.38 8.04 17.5 6.66 17.5L5 17.5C3.61 17.5 2.5 16.38 2.5 15L2.5 13.33ZM5 12.5C4.53 12.5 4.16 12.87 4.16 13.33L4.16 15C4.16 15.46 4.53 15.83 5 15.83L6.66 15.83C7.12 15.83 7.5 15.46 7.5 15L7.5 13.33C7.5 12.87 7.12 12.5 6.66 12.5L5 12.5ZM10.83 13.33C10.83 11.95 11.95 10.83 13.33 10.83L15 10.83C16.38 10.83 17.5 11.95 17.5 13.33L17.5 15C17.5 16.38 16.38 17.5 15 17.5L13.33 17.5C11.95 17.5 10.83 16.38 10.83 15L10.83 13.33ZM13.33 12.5C12.87 12.5 12.5 12.87 12.5 13.33L12.5 15C12.5 15.46 12.87 15.83 13.33 15.83L15 15.83C15.46 15.83 15.83 15.46 15.83 15L15.83 13.33C15.83 12.87 15.46 12.5 15 12.5L13.33 12.5Z" fill="#000000" fill-opacity="1.000000" fill-rule="evenodd"/>
	</g>
</svg>
