<svg width="20.000000" height="20.000000" viewBox="0 0 20 20" fill="none" xmlns="http://www.w3.org/2000/svg" xmlns:xlink="http://www.w3.org/1999/xlink">
	<desc>
			Created with Pixso.
	</desc>
	<defs>
		<clipPath id="clip6_2598">
			<rect id="Icon/Outline/receipt-tax" width="20.000002" height="20.000000" fill="white" fill-opacity="0"/>
		</clipPath>
	</defs>
	<g clip-path="url(#clip6_2598)">
		<path id="Icon" d="M14.16 2.5C15.08 2.5 15.83 3.24 15.83 4.16L15.83 17.5L12.91 15.83L9.99 17.5L7.08 15.83L4.16 17.5L4.16 4.16C4.16 3.24 4.91 2.5 5.83 2.5L14.16 2.5ZM7.49 11.66L12.5 6.66M7.91 7.5C7.68 7.5 7.49 7.31 7.49 7.08C7.49 6.85 7.68 6.66 7.91 6.66C8.14 6.66 8.33 6.85 8.33 7.08C8.33 7.31 8.14 7.5 7.91 7.5ZM7.91 7.08L7.92 7.08M12.08 11.25L12.09 11.25M12.08 11.66C11.85 11.66 11.66 11.48 11.66 11.25C11.66 11.02 11.85 10.83 12.08 10.83C12.31 10.83 12.5 11.02 12.5 11.25C12.5 11.48 12.31 11.66 12.08 11.66Z" stroke="#000000" stroke-opacity="1.000000" stroke-width="1.500000" stroke-linejoin="round"/>
	</g>
</svg>
