<svg width="20.000000" height="20.000000" viewBox="0 0 20 20" fill="none" xmlns="http://www.w3.org/2000/svg" xmlns:xlink="http://www.w3.org/1999/xlink">
	<desc>
			Created with Pixso.
	</desc>
	<defs>
		<clipPath id="clip6_2609">
			<rect id="Icon/Outline/bell" width="20.000000" height="20.000000" fill="white" fill-opacity="0"/>
		</clipPath>
	</defs>
	<g clip-path="url(#clip6_2609)">
		<path id="Icon" d="M4.5 12.99C4.82 12.67 5 12.24 5 11.79L5 9.16C5 6.98 6.39 5.13 8.33 4.45L8.33 4.16C8.33 3.24 9.07 2.5 9.99 2.5C10.92 2.5 11.66 3.24 11.66 4.16L11.66 4.45C13.6 5.13 15 6.98 15 9.16L15 11.79C15 12.24 15.17 12.67 15.49 12.99L16.66 14.16L12.5 14.16L7.49 14.16L3.33 14.16L4.5 12.99ZM12.5 14.16L12.5 15C12.5 16.38 11.38 17.5 9.99 17.5C8.61 17.5 7.49 16.38 7.49 15L7.49 14.16" stroke="#000000" stroke-opacity="1.000000" stroke-width="1.700000" stroke-linejoin="round"/>
	</g>
</svg>
