<svg width="20.000000" height="20.000000" viewBox="0 0 20 20" fill="none" xmlns="http://www.w3.org/2000/svg" xmlns:xlink="http://www.w3.org/1999/xlink">
	<desc>
			Created with Pixso.
	</desc>
	<defs>
		<clipPath id="clip6_2584">
			<rect id="Icon/Outline/ticket" width="20.000000" height="20.000000" transform=" rotate(-0.000000)" fill="white" fill-opacity="0"/>
		</clipPath>
	</defs>
	<g clip-path="url(#clip6_2584)">
		<path id="Icon (Stroke)" d="M1.66 5.83C1.66 4.45 2.78 3.33 4.16 3.33L15.83 3.33C17.21 3.33 18.33 4.45 18.33 5.83L18.33 8.33C18.33 8.79 17.96 9.16 17.5 9.16C17.03 9.16 16.66 9.53 16.66 10C16.66 10.46 17.03 10.83 17.5 10.83C17.96 10.83 18.33 11.2 18.33 11.66L18.33 14.16C18.33 15.54 17.21 16.66 15.83 16.66L4.16 16.66C2.78 16.66 1.66 15.54 1.66 14.16L1.66 11.66C1.66 11.2 2.03 10.83 2.5 10.83C2.96 10.83 3.33 10.46 3.33 10C3.33 9.53 2.96 9.16 2.5 9.16C2.03 9.16 1.66 8.79 1.66 8.33L1.66 5.83ZM13.33 15L13.33 14.16C13.33 13.7 12.96 13.33 12.5 13.33C12.03 13.33 11.66 13.7 11.66 14.16L11.66 15L4.16 15C3.7 15 3.33 14.62 3.33 14.16L3.33 12.35C4.3 12.01 5 11.08 5 10C5 8.91 4.3 7.98 3.33 7.64L3.33 5.83C3.33 5.37 3.7 5 4.16 5L11.66 5L11.66 5.83C11.66 6.29 12.03 6.66 12.5 6.66C12.96 6.66 13.33 6.29 13.33 5.83L13.33 5L15.83 5C16.29 5 16.66 5.37 16.66 5.83L16.66 7.64C15.69 7.98 15 8.91 15 10C15 11.08 15.69 12.01 16.66 12.35L16.66 14.16C16.66 14.62 16.29 15 15.83 15L13.33 15ZM12.5 8.33C12.96 8.33 13.33 8.7 13.33 9.16L13.33 10.83C13.33 11.29 12.96 11.66 12.5 11.66C12.03 11.66 11.66 11.29 11.66 10.83L11.66 9.16C11.66 8.7 12.03 8.33 12.5 8.33Z" fill="#FFFFFF" fill-opacity="1.000000" fill-rule="evenodd"/>
	</g>
</svg>
