<svg width="20.000000" height="20.000000" viewBox="0 0 20 20" fill="none" xmlns="http://www.w3.org/2000/svg" xmlns:xlink="http://www.w3.org/1999/xlink">
	<desc>
			Created with Pixso.
	</desc>
	<defs>
		<clipPath id="clip6_2567">
			<rect id="quote-request 2" width="20.000000" height="20.000000" fill="white" fill-opacity="0"/>
		</clipPath>
	</defs>
	<rect id="quote-request 2" width="20.000000" height="20.000000" fill="#FFFFFF" fill-opacity="0"/>
	<g clip-path="url(#clip6_2567)">
		<path id="Vector (Stroke)" d="M15.16 8.78C15.4 8.54 15.8 8.54 16.04 8.78L17.81 10.55C17.93 10.67 18 10.83 18 10.99C18 11.16 17.93 11.32 17.81 11.43L12.41 16.83C11.97 17.27 11.42 17.57 10.81 17.69L9.35 17.98C9.14 18.02 8.93 17.96 8.78 17.81C8.63 17.66 8.57 17.45 8.61 17.25L8.9 15.78C9.02 15.17 9.32 14.62 9.76 14.18L15.16 8.78ZM15.6 10.11L10.64 15.07C10.38 15.33 10.2 15.66 10.13 16.03L10.02 16.57L10.57 16.46C10.93 16.39 11.26 16.21 11.53 15.95L16.49 10.99L15.6 10.11Z" fill="#000000" fill-opacity="1.000000" fill-rule="evenodd"/>
		<path id="Vector (Stroke)" d="M13.87 5.75C14.22 5.75 14.5 6.02 14.5 6.37L14.5 7.42C14.5 7.77 14.22 8.05 13.87 8.05C13.52 8.05 13.25 7.77 13.25 7.42L13.25 6.37C13.25 6.02 13.52 5.75 13.87 5.75Z" fill="#000000" fill-opacity="1.000000" fill-rule="evenodd"/>
		<path id="Vector (Stroke)" d="M2 3.87C2 2.83 2.83 2 3.87 2L10.12 2C10.47 2 10.75 2.27 10.75 2.62C10.75 2.97 10.47 3.25 10.12 3.25L3.87 3.25C3.52 3.25 3.25 3.52 3.25 3.87L3.25 16.12C3.25 16.47 3.52 16.75 3.87 16.75L6.67 16.75C7.02 16.75 7.3 17.02 7.3 17.37C7.3 17.72 7.02 18 6.67 18L3.87 18C2.83 18 2 17.16 2 16.12L2 3.87Z" fill="#000000" fill-opacity="1.000000" fill-rule="evenodd"/>
		<path id="Vector (Stroke)" d="M9.88 2.04C10.11 1.95 10.38 2 10.56 2.18L14.31 5.93C14.49 6.11 14.54 6.38 14.45 6.61C14.35 6.84 14.12 7 13.87 7L11.37 7C10.33 7 9.5 6.16 9.5 5.12L9.5 2.62C9.5 2.37 9.65 2.14 9.88 2.04ZM10.75 4.13L10.75 5.12C10.75 5.47 11.02 5.75 11.37 5.75L12.36 5.75L10.75 4.13Z" fill="#000000" fill-opacity="1.000000" fill-rule="evenodd"/>
		<path id="Vector (Stroke)" d="M4.5 8.62C4.5 8.27 4.77 8 5.12 8L11.37 8C11.72 8 12 8.27 12 8.62C12 8.97 11.72 9.25 11.37 9.25L5.12 9.25C4.77 9.25 4.5 8.97 4.5 8.62Z" fill="#000000" fill-opacity="1.000000" fill-rule="evenodd"/>
		<path id="Vector (Stroke)" d="M4.5 11.12C4.5 10.77 4.77 10.5 5.12 10.5L10.17 10.5C10.52 10.5 10.8 10.77 10.8 11.12C10.8 11.47 10.52 11.75 10.17 11.75L5.12 11.75C4.77 11.75 4.5 11.47 4.5 11.12Z" fill="#000000" fill-opacity="1.000000" fill-rule="evenodd"/>
		<path id="Vector (Stroke)" d="M4.5 13.62C4.5 13.27 4.77 13 5.12 13L7.81 13C8.15 13 8.43 13.27 8.43 13.62C8.43 13.97 8.15 14.25 7.81 14.25L5.12 14.25C4.77 14.25 4.5 13.97 4.5 13.62Z" fill="#000000" fill-opacity="1.000000" fill-rule="evenodd"/>
	</g>
</svg>
