<svg width="20.000000" height="20.000000" viewBox="0 0 20 20" fill="none" xmlns="http://www.w3.org/2000/svg" xmlns:xlink="http://www.w3.org/1999/xlink">
	<desc>
			Created with Pixso.
	</desc>
	<defs>
		<clipPath id="clip6_2591">
			<rect id="Icon/Outline/trending-up" width="20.000000" height="20.000000" transform=" rotate(-0.000000)" fill="white" fill-opacity="0"/>
		</clipPath>
	</defs>
	<g clip-path="url(#clip6_2591)">
		<path id="Icon (Stroke)" d="M10.83 6.66C10.37 6.66 10 6.29 10 5.83C10 5.37 10.37 5 10.83 5L17.5 5C17.96 5 18.33 5.37 18.33 5.83L18.33 12.5C18.33 12.96 17.96 13.33 17.5 13.33C17.03 13.33 16.66 12.96 16.66 12.5L16.66 7.84L11.42 13.08C11.09 13.41 10.56 13.41 10.24 13.08L7.5 10.34L3.08 14.75C2.76 15.08 2.23 15.08 1.91 14.75C1.58 14.43 1.58 13.9 1.91 13.57L6.91 8.57C7.23 8.25 7.76 8.25 8.08 8.57L10.83 11.32L15.48 6.66L10.83 6.66Z" fill="#000000" fill-opacity="1.000000" fill-rule="evenodd"/>
	</g>
</svg>
