<svg width="20.000000" height="20.000000" viewBox="0 0 20 20" fill="none" xmlns="http://www.w3.org/2000/svg" xmlns:xlink="http://www.w3.org/1999/xlink">
	<desc>
			Created with Pixso.
	</desc>
	<defs>
		<clipPath id="clip6_2629">
			<rect id="Icon/Outline/user-add" width="20.000000" height="20.000000" fill="white" fill-opacity="0"/>
		</clipPath>
	</defs>
	<g clip-path="url(#clip6_2629)">
		<path id="Icon" d="M7.5 9.16C5.65 9.16 4.16 7.67 4.16 5.83C4.16 3.99 5.65 2.5 7.5 2.5C9.34 2.5 10.83 3.99 10.83 5.83C10.83 7.67 9.34 9.16 7.5 9.16ZM7.5 11.66C10.26 11.66 12.5 13.9 12.5 16.66L12.5 17.5L2.5 17.5L2.5 16.66C2.5 13.9 4.73 11.66 7.5 11.66ZM15 7.5L15 10L15 12.5M17.5 10L15 10M15 10L12.5 10" stroke="#000000" stroke-opacity="1.000000" stroke-width="1.500000" stroke-linejoin="round"/>
	</g>
</svg>
