<svg width="70" height="70" viewBox="0 0 70 70" fill="none" xmlns="http://www.w3.org/2000/svg">
<circle opacity="0.15" cx="35" cy="35" r="35" fill="#FFAD4B"/>
<circle cx="35" cy="35" r="21" fill="#F5F5F5"/>
<path d="M35 70C27.0441 70 19.3256 67.2894 13.1165 62.3151C6.90746 57.3407 2.57845 50.3993 0.842911 42.635C-0.892616 34.8707 0.0689087 26.7468 3.56903 19.6021C7.06916 12.4575 12.899 6.71852 20.0977 3.33105L26.0586 15.9986C21.7394 18.0311 18.2415 21.4745 16.1414 25.7613C14.0413 30.0481 13.4644 34.9224 14.5057 39.581C15.5471 44.2396 18.1445 48.4044 21.8699 51.389C25.5953 54.3737 30.2264 56 35 56L35 70Z" fill="#FFAD4B"/>
<path d="M30.2358 36.036H31.1358V37.572H30.2358V39H28.5678V37.572H24.5958V36.036L27.3918 30.6H29.1678L26.3838 36.036H28.5678V34.044H30.2358V36.036ZM37.1127 31.968L35.5407 34.008C36.1247 34.176 36.5887 34.472 36.9327 34.896C37.2847 35.32 37.4607 35.824 37.4607 36.408C37.4607 37.272 37.1687 37.948 36.5847 38.436C36.0167 38.924 35.3087 39.168 34.4607 39.168C33.7967 39.168 33.2087 39.016 32.6967 38.712C32.1847 38.4 31.8127 37.96 31.5807 37.392L32.9967 36.576C33.1967 37.224 33.6847 37.548 34.4607 37.548C34.8847 37.548 35.2127 37.448 35.4447 37.248C35.6847 37.04 35.8047 36.76 35.8047 36.408C35.8047 36.064 35.6847 35.788 35.4447 35.58C35.2127 35.372 34.8847 35.268 34.4607 35.268H34.1007L33.4647 34.308L35.1207 32.148H31.8327V30.6H37.1127V31.968ZM41.4885 33.828C41.0965 34.204 40.6165 34.392 40.0485 34.392C39.4725 34.392 38.9885 34.2 38.5965 33.816C38.2125 33.432 38.0205 32.964 38.0205 32.412C38.0205 31.86 38.2125 31.392 38.5965 31.008C38.9965 30.624 39.4805 30.432 40.0485 30.432C40.6245 30.432 41.1045 30.624 41.4885 31.008C41.8725 31.376 42.0645 31.844 42.0645 32.412C42.0645 32.972 41.8725 33.444 41.4885 33.828ZM39.5925 38.148L38.8725 37.728L44.3445 31.644L45.0765 32.052L39.5925 38.148ZM39.4965 32.964C39.6405 33.108 39.8205 33.18 40.0365 33.18C40.2525 33.18 40.4325 33.108 40.5765 32.964C40.7205 32.812 40.7925 32.628 40.7925 32.412C40.7925 32.196 40.7205 32.016 40.5765 31.872C40.4325 31.728 40.2525 31.656 40.0365 31.656C39.8205 31.656 39.6405 31.728 39.4965 31.872C39.3605 32.016 39.2925 32.196 39.2925 32.412C39.2925 32.628 39.3605 32.812 39.4965 32.964ZM46.1205 37.164C46.1205 37.716 45.9285 38.184 45.5445 38.568C45.1605 38.952 44.6805 39.144 44.1045 39.144C43.5285 39.144 43.0485 38.952 42.6645 38.568C42.2805 38.184 42.0885 37.716 42.0885 37.164C42.0885 36.612 42.2805 36.144 42.6645 35.76C43.0485 35.376 43.5285 35.184 44.1045 35.184C44.6805 35.184 45.1605 35.376 45.5445 35.76C45.9285 36.144 46.1205 36.612 46.1205 37.164ZM44.6325 37.716C44.7765 37.564 44.8485 37.38 44.8485 37.164C44.8485 36.948 44.7765 36.768 44.6325 36.624C44.4965 36.472 44.3205 36.396 44.1045 36.396C43.8885 36.396 43.7085 36.472 43.5645 36.624C43.4285 36.768 43.3605 36.948 43.3605 37.164C43.3605 37.38 43.4285 37.564 43.5645 37.716C43.7085 37.86 43.8885 37.932 44.1045 37.932C44.3205 37.932 44.4965 37.86 44.6325 37.716Z" fill="#FFAD4B"/>
</svg>
