<svg width="60" height="60" viewBox="0 0 60 60" fill="none" xmlns="http://www.w3.org/2000/svg">
<path opacity="0.15" d="M60 30C60 46.5685 46.5685 60 30 60C13.4315 60 0 46.5685 0 30C0 13.4315 13.4315 0 30 0C46.5685 0 60 13.4315 60 30ZM6 30C6 43.2548 16.7452 54 30 54C43.2548 54 54 43.2548 54 30C54 16.7452 43.2548 6 30 6C16.7452 6 6 16.7452 6 30Z" fill="white"/>
<path d="M30 57C30 58.6569 28.6535 60.0155 27.005 59.8501C22.7594 59.4242 18.6415 58.096 14.932 55.9414C10.3553 53.283 6.56339 49.4612 3.94106 44.8638C1.31872 40.2663 -0.0406418 35.057 0.000926971 29.7644C0.0424919 24.4718 1.48352 19.2844 4.17774 14.7288C6.87196 10.1731 10.7235 6.41127 15.3414 3.82512C19.9593 1.23898 25.1791 -0.079433 30.4712 0.00370096C35.7633 0.0868349 40.9392 1.56855 45.4736 4.29847C49.1487 6.51109 52.2964 9.47985 54.715 12.995C55.6542 14.36 55.1122 16.1945 53.6603 16.9926C52.2084 17.7908 50.3987 17.2471 49.4257 15.906C47.5404 13.3075 45.1466 11.1051 42.3789 9.43878C38.7514 7.25484 34.6106 6.06947 30.377 6.00296C26.1433 5.93645 21.9674 6.99118 18.2731 9.0601C14.5788 11.129 11.4976 14.1385 9.34219 17.783C7.18681 21.4276 6.034 25.5774 6.00074 29.8115C5.96749 34.0456 7.05498 38.2131 9.15284 41.891C11.2507 45.569 14.2843 48.6264 17.9456 50.7531C20.7392 52.3758 23.8224 53.4125 27.0077 53.8127C28.6517 54.0193 30 55.3431 30 57Z" fill="white"/>
<path d="M23.64 28.49H23.822C24.8487 28.49 25.6793 28.8027 26.314 29.428C26.958 30.044 27.28 30.8467 27.28 31.836C27.28 32.816 26.958 33.6233 26.314 34.258C25.67 34.874 24.8393 35.182 23.822 35.182C22.7953 35.182 21.96 34.874 21.316 34.258C20.672 33.6233 20.35 32.816 20.35 31.836C20.35 31.0893 20.546 30.4313 20.938 29.862L24.046 25.2H25.88L23.64 28.49ZM23.822 33.656C24.3633 33.656 24.8067 33.4927 25.152 33.166C25.4973 32.83 25.67 32.3867 25.67 31.836C25.67 31.2853 25.4973 30.8467 25.152 30.52C24.8067 30.184 24.3633 30.016 23.822 30.016C23.262 30.016 22.8093 30.184 22.464 30.52C22.128 30.8467 21.96 31.2853 21.96 31.836C21.96 32.3867 22.128 32.83 22.464 33.166C22.8093 33.4927 23.262 33.656 23.822 33.656ZM26.9913 26.74V25.2H33.2213V26.6L29.7773 35H28.0833L31.4713 26.74H26.9913ZM36.6145 28.997C36.8965 29.279 37.0375 29.621 37.0375 30.023C37.0375 30.425 36.8965 30.767 36.6145 31.049C36.3385 31.325 35.9905 31.463 35.5705 31.463C35.1445 31.463 34.7935 31.325 34.5175 31.049C34.2355 30.767 34.0945 30.425 34.0945 30.023C34.0945 29.627 34.2355 29.288 34.5175 29.006C34.7995 28.724 35.1505 28.583 35.5705 28.583C35.9905 28.583 36.3385 28.721 36.6145 28.997ZM35.5615 30.671C35.7535 30.671 35.9095 30.611 36.0295 30.491C36.1495 30.365 36.2095 30.209 36.2095 30.023C36.2095 29.837 36.1495 29.681 36.0295 29.555C35.9095 29.429 35.7535 29.366 35.5615 29.366C35.3755 29.366 35.2225 29.429 35.1025 29.555C34.9825 29.681 34.9225 29.837 34.9225 30.023C34.9225 30.203 34.9825 30.356 35.1025 30.482C35.2285 30.608 35.3815 30.671 35.5615 30.671ZM35.1115 34.361L34.6255 34.073L38.7745 29.456L39.2605 29.735L35.1115 34.361ZM38.4505 35.108C38.0245 35.108 37.6735 34.97 37.3975 34.694C37.1155 34.412 36.9745 34.07 36.9745 33.668C36.9745 33.272 37.1155 32.933 37.3975 32.651C37.6795 32.369 38.0305 32.228 38.4505 32.228C38.8645 32.228 39.2125 32.369 39.4945 32.651C39.7765 32.933 39.9175 33.272 39.9175 33.668C39.9175 34.07 39.7765 34.412 39.4945 34.694C39.2185 34.97 38.8705 35.108 38.4505 35.108ZM38.4415 34.316C38.6335 34.316 38.7895 34.256 38.9095 34.136C39.0295 34.01 39.0895 33.854 39.0895 33.668C39.0895 33.482 39.0295 33.326 38.9095 33.2C38.7895 33.074 38.6335 33.011 38.4415 33.011C38.2555 33.011 38.1025 33.074 37.9825 33.2C37.8625 33.326 37.8025 33.482 37.8025 33.668C37.8025 33.848 37.8625 34.001 37.9825 34.127C38.1085 34.253 38.2615 34.316 38.4415 34.316Z" fill="white"/>
</svg>
