<svg xmlns="http://www.w3.org/2000/svg" width="53" height="63" viewBox="0 0 53 63" fill="none">
  <path opacity="0.1" d="M52.0536 29.712H52.0725C52.5836 29.712 53 29.3104 53 28.8174V26.3802C53 24.4907 51.8548 22.7746 50.0755 21.9896C50.0755 21.9896 35.103 16.1841 33.1345 15.7916C31.7716 15.5178 30.8063 14.3494 30.8063 13.0076V10.9629C31.2321 10.9355 31.5634 10.5977 31.5634 10.1778V10.0957C31.5634 9.68492 31.2321 9.33805 30.8063 9.31067V8.17879H30.9009C31.3741 8.17879 31.7621 7.80453 31.7621 7.34813V0.830658C31.7621 0.374252 31.3741 0 30.9009 0H22.0991C21.6259 0 21.2379 0.374252 21.2379 0.830658V7.35725C21.2379 7.81366 21.6259 8.18791 22.0991 8.18791H22.1938V9.3198C21.7679 9.34718 21.4366 9.68492 21.4366 10.1048V10.187C21.4366 10.5977 21.7679 10.9446 22.1938 10.972V13.0167C22.1938 14.3585 21.2284 15.5269 19.8655 15.8008C17.897 16.1933 2.92446 21.9987 2.92446 21.9987C1.14518 22.7838 0 24.4998 0 26.3894V28.8266C0 29.3195 0.416429 29.7211 0.9275 29.7211H0.946429C1.4575 29.7211 1.87393 30.1228 1.87393 30.6157V32.6695H1.48589C1.08839 32.6695 0.766608 32.9799 0.766608 33.3632V39.8168C0.766608 40.2002 1.08839 40.5105 1.48589 40.5105H1.87393V57.3428H1.48589C1.08839 57.3428 0.766608 57.6531 0.766608 58.0365V64.4901C0.766608 64.8735 1.08839 65.1838 1.48589 65.1838H1.87393V67.1829H1.48589C1.08839 67.1829 0.766608 67.4932 0.766608 67.8766V74.3302C0.766608 74.7136 1.08839 75.0239 1.48589 75.0239H1.87393V76.7035C1.87393 77.1964 1.4575 77.598 0.946429 77.598H0.9275C0.416429 77.598 0 77.9997 0 78.4926V82.1712C0 84.8366 2.24303 87 5.00661 87L24.9668 86.7535C25.9795 86.7079 27.0016 86.7079 28.0238 86.7535L47.9839 87C50.7475 87 52.9905 84.8366 52.9905 82.1712V78.4926C52.9905 77.9997 52.5741 77.598 52.063 77.598H52.0441C51.533 77.598 51.1166 77.1964 51.1166 76.7035V75.0239H51.5046C51.9021 75.0239 52.2239 74.7136 52.2239 74.3302V67.8766C52.2239 67.4932 51.9021 67.1829 51.5046 67.1829H51.1166V65.1838H51.5046C51.9021 65.1838 52.2239 64.8735 52.2239 64.4901V58.0365C52.2239 57.6531 51.9021 57.3428 51.5046 57.3428H51.1166V40.5105H51.5046C51.9021 40.5105 52.2239 40.2002 52.2239 39.8168V33.3632C52.2239 32.9799 51.9021 32.6695 51.5046 32.6695H51.1166V30.6157C51.1261 30.1136 51.5425 29.712 52.0536 29.712Z" fill="white"/>
</svg>