<svg width="60" height="60" viewBox="0 0 60 60" fill="none" xmlns="http://www.w3.org/2000/svg">
<path opacity="0.15" d="M60 30C60 46.5685 46.5685 60 30 60C13.4315 60 0 46.5685 0 30C0 13.4315 13.4315 0 30 0C46.5685 0 60 13.4315 60 30ZM6 30C6 43.2548 16.7452 54 30 54C43.2548 54 54 43.2548 54 30C54 16.7452 43.2548 6 30 6C16.7452 6 6 16.7452 6 30Z" fill="white"/>
<path d="M30 57C30 58.6569 28.6534 60.0156 27.0048 59.8502C21.023 59.25 15.3336 56.8625 10.6963 52.9645C5.29042 48.4204 1.6609 42.1148 0.44672 35.1579C-0.767456 28.201 0.511559 21.0387 4.0586 14.932C7.60563 8.82536 13.1933 4.16577 19.8379 1.77358C26.4824 -0.618616 33.7579 -0.590046 40.3835 1.85426C47.0091 4.29856 52.56 9.00189 56.0589 15.1362C59.5579 21.2706 60.7806 28.4427 59.5119 35.3898C58.4235 41.3492 55.5616 46.8153 51.335 51.0907C50.1702 52.269 48.2666 52.0805 47.2105 50.8039C46.1543 49.5272 46.3495 47.6477 47.4845 46.4407C50.6374 43.0876 52.775 38.881 53.6095 34.3119C54.6245 28.7541 53.6463 23.0165 50.8472 18.109C48.048 13.2015 43.6073 9.43885 38.3068 7.48341C33.0063 5.52796 27.1859 5.50511 21.8703 7.41886C16.5546 9.33262 12.0845 13.0603 9.24688 17.9456C6.40925 22.831 5.38604 28.5608 6.35738 34.1263C7.32872 39.6918 10.2323 44.7363 14.5571 48.3716C18.1125 51.3602 22.441 53.239 27.0077 53.8128C28.6516 54.0193 30 55.3431 30 57Z" fill="white"/>
<path d="M24.922 29.904C25.8833 30.436 26.364 31.2293 26.364 32.284C26.364 33.1707 26.0513 33.8753 25.426 34.398C24.81 34.9207 23.9793 35.182 22.934 35.182C21.8887 35.182 21.0533 34.9253 20.428 34.412C19.8027 33.8987 19.49 33.1893 19.49 32.284C19.49 31.78 19.616 31.3227 19.868 30.912C20.12 30.492 20.4747 30.156 20.932 29.904C20.1947 29.4187 19.826 28.728 19.826 27.832C19.826 26.936 20.1247 26.2453 20.722 25.76C21.3287 25.2653 22.066 25.018 22.934 25.018C23.7927 25.018 24.5253 25.2653 25.132 25.76C25.7387 26.2547 26.042 26.9453 26.042 27.832C26.042 28.7187 25.6687 29.4093 24.922 29.904ZM22.934 26.544C22.486 26.544 22.122 26.6653 21.842 26.908C21.5713 27.1413 21.436 27.4727 21.436 27.902C21.436 28.3127 21.576 28.644 21.856 28.896C22.136 29.1387 22.4953 29.26 22.934 29.26C23.3633 29.26 23.718 29.1387 23.998 28.896C24.2873 28.644 24.432 28.3127 24.432 27.902C24.432 27.4727 24.292 27.1413 24.012 26.908C23.732 26.6653 23.3727 26.544 22.934 26.544ZM22.934 33.656C23.4847 33.656 23.9233 33.5207 24.25 33.25C24.586 32.9793 24.754 32.606 24.754 32.13C24.754 31.654 24.586 31.2807 24.25 31.01C23.9233 30.7393 23.4847 30.604 22.934 30.604C22.374 30.604 21.926 30.7393 21.59 31.01C21.2633 31.2807 21.1 31.654 21.1 32.13C21.1 32.606 21.2633 32.9793 21.59 33.25C21.926 33.5207 22.374 33.656 22.934 33.656ZM34.1277 28.364C34.1277 29.1107 33.9317 29.7687 33.5397 30.338L30.4457 35H28.5977L30.8377 31.71H30.6697C29.6523 31.71 28.817 31.402 28.1637 30.786C27.5197 30.1607 27.1977 29.3533 27.1977 28.364C27.1977 27.3747 27.5197 26.572 28.1637 25.956C28.817 25.3307 29.6523 25.018 30.6697 25.018C31.6963 25.018 32.527 25.3307 33.1617 25.956C33.8057 26.572 34.1277 27.3747 34.1277 28.364ZM28.8077 28.364C28.8077 28.896 28.9803 29.3347 29.3257 29.68C29.6803 30.016 30.1283 30.184 30.6697 30.184C31.211 30.184 31.6543 30.0207 31.9997 29.694C32.345 29.358 32.5177 28.9147 32.5177 28.364C32.5177 27.8133 32.345 27.3747 31.9997 27.048C31.6543 26.712 31.211 26.544 30.6697 26.544C30.1283 26.544 29.6803 26.712 29.3257 27.048C28.9803 27.3747 28.8077 27.8133 28.8077 28.364ZM37.4466 28.997C37.7286 29.279 37.8696 29.621 37.8696 30.023C37.8696 30.425 37.7286 30.767 37.4466 31.049C37.1706 31.325 36.8226 31.463 36.4026 31.463C35.9766 31.463 35.6256 31.325 35.3496 31.049C35.0676 30.767 34.9266 30.425 34.9266 30.023C34.9266 29.627 35.0676 29.288 35.3496 29.006C35.6316 28.724 35.9826 28.583 36.4026 28.583C36.8226 28.583 37.1706 28.721 37.4466 28.997ZM36.3936 30.671C36.5856 30.671 36.7416 30.611 36.8616 30.491C36.9816 30.365 37.0416 30.209 37.0416 30.023C37.0416 29.837 36.9816 29.681 36.8616 29.555C36.7416 29.429 36.5856 29.366 36.3936 29.366C36.2076 29.366 36.0546 29.429 35.9346 29.555C35.8146 29.681 35.7546 29.837 35.7546 30.023C35.7546 30.203 35.8146 30.356 35.9346 30.482C36.0606 30.608 36.2136 30.671 36.3936 30.671ZM35.9436 34.361L35.4576 34.073L39.6066 29.456L40.0926 29.735L35.9436 34.361ZM39.2826 35.108C38.8566 35.108 38.5056 34.97 38.2296 34.694C37.9476 34.412 37.8066 34.07 37.8066 33.668C37.8066 33.272 37.9476 32.933 38.2296 32.651C38.5116 32.369 38.8626 32.228 39.2826 32.228C39.6966 32.228 40.0446 32.369 40.3266 32.651C40.6086 32.933 40.7496 33.272 40.7496 33.668C40.7496 34.07 40.6086 34.412 40.3266 34.694C40.0506 34.97 39.7026 35.108 39.2826 35.108ZM39.2736 34.316C39.4656 34.316 39.6216 34.256 39.7416 34.136C39.8616 34.01 39.9216 33.854 39.9216 33.668C39.9216 33.482 39.8616 33.326 39.7416 33.2C39.6216 33.074 39.4656 33.011 39.2736 33.011C39.0876 33.011 38.9346 33.074 38.8146 33.2C38.6946 33.326 38.6346 33.482 38.6346 33.668C38.6346 33.848 38.6946 34.001 38.8146 34.127C38.9406 34.253 39.0936 34.316 39.2736 34.316Z" fill="white"/>
</svg>
