<svg xmlns="http://www.w3.org/2000/svg" width="61" height="56" viewBox="0 0 61 56" fill="none">
  <path opacity="0.4" fill-rule="evenodd" clip-rule="evenodd" d="M45.4818 54.7655C45.4818 52.2455 47.5218 50.2055 50.0418 50.2055C52.5318 50.2055 54.5718 52.2455 54.5718 54.7655C54.5718 57.2555 52.5318 59.2955 50.0418 59.2955C47.5218 59.2955 45.4818 57.2555 45.4818 54.7655ZM11.7318 54.7655C11.7318 52.2455 13.7718 50.2055 16.2918 50.2055C18.7818 50.2055 20.8218 52.2455 20.8218 54.7655C20.8218 57.2555 18.7818 59.2955 16.2918 59.2955C13.7718 59.2955 11.7318 57.2555 11.7318 54.7655Z" fill="white"/>
  <path fill-rule="evenodd" clip-rule="evenodd" d="M54.5724 12.047C56.4024 12.047 57.6024 12.677 58.8024 14.057C60.0024 15.437 60.2124 17.417 59.9424 19.214L57.0924 38.894C56.5524 42.677 53.3124 45.464 49.5024 45.464H16.7724C12.7824 45.464 9.48241 42.404 9.15241 38.447L6.39241 5.74402L1.86241 4.96402C0.66241 4.75402 -0.17759 3.58402 0.0324095 2.38401C0.24241 1.15401 1.41241 0.344015 2.64241 0.524015L9.79741 1.60401C10.8174 1.78701 11.5674 2.62401 11.6574 3.64402L12.2274 10.364C12.3174 11.327 13.0974 12.047 14.0574 12.047H54.5724ZM36.3924 27.644H44.7024C45.9624 27.644 46.9524 26.624 46.9524 25.394C46.9524 24.134 45.9624 23.144 44.7024 23.144H36.3924C35.1324 23.144 34.1424 24.134 34.1424 25.394C34.1424 26.624 35.1324 27.644 36.3924 27.644Z" fill="white"/>
</svg>