<svg width="50" height="50" viewBox="0 0 50 50" fill="none" xmlns="http://www.w3.org/2000/svg">
<circle opacity="0.15" cx="25" cy="25" r="25" fill="#FB5454"/>
<circle cx="25" cy="25" r="20" fill="#F5F5F5"/>
<path d="M25 47.5C25 48.8807 23.8779 50.013 22.5041 49.8751C19.0317 49.5267 15.661 48.454 12.6135 46.7158C8.84017 44.5635 5.69275 41.4651 3.48145 37.726C1.27016 33.9869 0.0713196 29.7362 0.00308609 25.3927C-0.052021 21.8848 0.631832 18.4142 1.99937 15.2035C2.54042 13.9332 4.07317 13.4954 5.2831 14.1605C6.49303 14.8257 6.91846 16.3418 6.40934 17.6252C5.44223 20.0632 4.96101 22.6755 5.00247 25.3141C5.05705 28.7889 6.01612 32.1896 7.78516 35.1808C9.5542 38.1721 12.0721 40.6508 15.0908 42.3726C17.3832 43.6802 19.9042 44.517 22.5065 44.844C23.8764 45.0161 25 46.1193 25 47.5Z" fill="#FB5454"/>
<path d="M21.0479 21.776L19.3439 24.032C19.9679 24.176 20.4639 24.464 20.8319 24.896C21.2079 25.32 21.3959 25.84 21.3959 26.456C21.3959 27.296 21.1119 27.956 20.5439 28.436C19.9839 28.916 19.2879 29.156 18.4559 29.156C17.7999 29.156 17.2199 29.008 16.7159 28.712C16.2119 28.408 15.8519 27.976 15.6359 27.416L16.8119 26.732C17.0599 27.452 17.6079 27.812 18.4559 27.812C18.9359 27.812 19.3159 27.692 19.5959 27.452C19.8759 27.204 20.0159 26.872 20.0159 26.456C20.0159 26.04 19.8759 25.712 19.5959 25.472C19.3159 25.232 18.9359 25.112 18.4559 25.112H18.1439L17.5919 24.284L19.4039 21.896H15.8879V20.6H21.0479V21.776ZM27.294 21.776L25.59 24.032C26.214 24.176 26.71 24.464 27.078 24.896C27.454 25.32 27.642 25.84 27.642 26.456C27.642 27.296 27.358 27.956 26.79 28.436C26.23 28.916 25.534 29.156 24.702 29.156C24.046 29.156 23.466 29.008 22.962 28.712C22.458 28.408 22.098 27.976 21.882 27.416L23.058 26.732C23.306 27.452 23.854 27.812 24.702 27.812C25.182 27.812 25.562 27.692 25.842 27.452C26.122 27.204 26.262 26.872 26.262 26.456C26.262 26.04 26.122 25.712 25.842 25.472C25.562 25.232 25.182 25.112 24.702 25.112H24.39L23.838 24.284L25.65 21.896H22.134V20.6H27.294V21.776ZM31.6592 20.996C32.0352 21.372 32.2232 21.828 32.2232 22.364C32.2232 22.9 32.0352 23.356 31.6592 23.732C31.2912 24.1 30.8272 24.284 30.2672 24.284C29.6992 24.284 29.2312 24.1 28.8632 23.732C28.4872 23.356 28.2992 22.9 28.2992 22.364C28.2992 21.836 28.4872 21.384 28.8632 21.008C29.2392 20.632 29.7072 20.444 30.2672 20.444C30.8272 20.444 31.2912 20.628 31.6592 20.996ZM30.2552 23.228C30.5112 23.228 30.7192 23.148 30.8792 22.988C31.0392 22.82 31.1192 22.612 31.1192 22.364C31.1192 22.116 31.0392 21.908 30.8792 21.74C30.7192 21.572 30.5112 21.488 30.2552 21.488C30.0072 21.488 29.8032 21.572 29.6432 21.74C29.4832 21.908 29.4032 22.116 29.4032 22.364C29.4032 22.604 29.4832 22.808 29.6432 22.976C29.8112 23.144 30.0152 23.228 30.2552 23.228ZM29.6552 28.148L29.0072 27.764L34.5392 21.608L35.1872 21.98L29.6552 28.148ZM34.1072 29.144C33.5392 29.144 33.0712 28.96 32.7032 28.592C32.3272 28.216 32.1392 27.76 32.1392 27.224C32.1392 26.696 32.3272 26.244 32.7032 25.868C33.0792 25.492 33.5472 25.304 34.1072 25.304C34.6592 25.304 35.1232 25.492 35.4992 25.868C35.8752 26.244 36.0632 26.696 36.0632 27.224C36.0632 27.76 35.8752 28.216 35.4992 28.592C35.1312 28.96 34.6672 29.144 34.1072 29.144ZM34.0952 28.088C34.3512 28.088 34.5592 28.008 34.7192 27.848C34.8792 27.68 34.9592 27.472 34.9592 27.224C34.9592 26.976 34.8792 26.768 34.7192 26.6C34.5592 26.432 34.3512 26.348 34.0952 26.348C33.8472 26.348 33.6432 26.432 33.4832 26.6C33.3232 26.768 33.2432 26.976 33.2432 27.224C33.2432 27.464 33.3232 27.668 33.4832 27.836C33.6512 28.004 33.8552 28.088 34.0952 28.088Z" fill="black"/>
</svg>
