<svg width="13" height="13" viewBox="0 0 13 13" fill="none" xmlns="http://www.w3.org/2000/svg">
<path fill-rule="evenodd" clip-rule="evenodd" d="M5.95837 1.62508C4.76176 1.62508 3.79171 2.59513 3.79171 3.79175C3.79171 3.95581 3.80984 4.11498 3.84401 4.26761C3.90934 4.55945 3.72579 4.84901 3.43398 4.91446C2.70846 5.07721 2.16671 5.72602 2.16671 6.50008C2.16671 7.39754 2.89424 8.12508 3.79171 8.12508C4.09086 8.12508 4.33337 8.36759 4.33337 8.66675C4.33337 8.9659 4.09086 9.20841 3.79171 9.20841C2.29594 9.20841 1.08337 7.99585 1.08337 6.50008C1.08337 5.38618 1.75544 4.43021 2.71588 4.01402C2.7109 3.94051 2.70837 3.8664 2.70837 3.79175C2.70837 1.99682 4.16345 0.541748 5.95837 0.541748C7.38133 0.541748 8.5898 1.45578 9.03031 2.72853C10.6541 2.90929 11.9167 4.2864 11.9167 5.95841C11.9167 7.53137 10.7998 8.84224 9.31613 9.14341C9.02295 9.20292 8.73705 9.0135 8.67753 8.72033C8.61802 8.42715 8.80744 8.14124 9.10062 8.08173C10.0894 7.88103 10.8334 7.006 10.8334 5.95841C10.8334 4.7618 9.86332 3.79175 8.66671 3.79175C8.65219 3.79175 8.63771 3.79189 8.62324 3.79217C8.36164 3.7973 8.13378 3.61469 8.08178 3.35826C7.88124 2.36931 7.00611 1.62508 5.95837 1.62508ZM6.50004 4.87508C6.7992 4.87508 7.04171 5.11759 7.04171 5.41675V10.609L7.74202 9.90873C7.95356 9.6972 8.29652 9.6972 8.50806 9.90873C8.71959 10.1203 8.71959 10.4632 8.50806 10.6748L6.88306 12.2998C6.67152 12.5113 6.32856 12.5113 6.11702 12.2998L4.49202 10.6748C4.28049 10.4632 4.28049 10.1203 4.49202 9.90873C4.70356 9.6972 5.04652 9.6972 5.25806 9.90873L5.95837 10.609V5.41675C5.95837 5.11759 6.20089 4.87508 6.50004 4.87508Z" fill="black"/>
</svg>
