<svg width="50" height="50" viewBox="0 0 50 50" fill="none" xmlns="http://www.w3.org/2000/svg">
<circle opacity="0.15" cx="25" cy="25" r="25" fill="#00E074"/>
<circle cx="25" cy="25" r="20" fill="#F5F5F5"/>
<path d="M25 47.5C25 48.8807 23.8779 50.013 22.5041 49.8751C18.7696 49.5004 15.156 48.2883 11.9375 46.316C8.00639 43.907 4.81799 40.4578 2.72484 36.3498C0.631687 32.2417 -0.284672 27.6349 0.0770683 23.0385C0.438808 18.4422 2.06456 14.0354 4.77457 10.3054C7.48459 6.57535 11.1733 3.6674 15.4329 1.90301C19.6925 0.138628 24.3571 -0.413459 28.9109 0.307791C33.4647 1.02904 37.7303 2.99553 41.2362 5.98985C44.1065 8.44129 46.376 11.5035 47.8864 14.9394C48.442 16.2034 47.7119 17.6205 46.3988 18.0471C45.0856 18.4738 43.6892 17.7461 43.1022 16.4964C41.8976 13.9322 40.1576 11.6441 37.989 9.79188C35.1842 7.39643 31.7717 5.82323 28.1287 5.24623C24.4857 4.66923 20.754 5.1109 17.3463 6.52241C13.9386 7.93392 10.9877 10.2603 8.81966 13.2443C6.65165 16.2283 5.35104 19.7537 5.06165 23.4308C4.77226 27.1079 5.50535 30.7934 7.17987 34.0798C8.85439 37.3662 11.4051 40.1256 14.55 42.0528C16.9818 43.543 19.6955 44.4907 22.5065 44.844C23.8764 45.0161 25 46.1193 25 47.5Z" fill="#00E074"/>
<path d="M15.3284 21.92V20.6H20.6684V21.8L17.7164 29H16.2644L19.1684 21.92H15.3284ZM26.7665 27.968C26.1905 28.76 25.3825 29.156 24.3425 29.156C23.3105 29.156 22.4985 28.76 21.9065 27.968C21.3305 27.176 21.0425 26.12 21.0425 24.8C21.0425 23.48 21.3305 22.424 21.9065 21.632C22.4985 20.84 23.3105 20.444 24.3425 20.444C25.3825 20.444 26.1905 20.84 26.7665 21.632C27.3505 22.416 27.6425 23.472 27.6425 24.8C27.6425 26.128 27.3505 27.184 26.7665 27.968ZM24.3425 27.812C24.9665 27.812 25.4425 27.552 25.7705 27.032C26.0985 26.512 26.2625 25.768 26.2625 24.8C26.2625 23.832 26.0985 23.088 25.7705 22.568C25.4425 22.048 24.9665 21.788 24.3425 21.788C23.7265 21.788 23.2505 22.048 22.9145 22.568C22.5865 23.088 22.4225 23.832 22.4225 24.8C22.4225 25.768 22.5865 26.512 22.9145 27.032C23.2505 27.552 23.7265 27.812 24.3425 27.812ZM31.8467 20.996C32.2227 21.372 32.4107 21.828 32.4107 22.364C32.4107 22.9 32.2227 23.356 31.8467 23.732C31.4787 24.1 31.0147 24.284 30.4547 24.284C29.8867 24.284 29.4187 24.1 29.0507 23.732C28.6747 23.356 28.4867 22.9 28.4867 22.364C28.4867 21.836 28.6747 21.384 29.0507 21.008C29.4267 20.632 29.8947 20.444 30.4547 20.444C31.0147 20.444 31.4787 20.628 31.8467 20.996ZM30.4427 23.228C30.6987 23.228 30.9067 23.148 31.0667 22.988C31.2267 22.82 31.3067 22.612 31.3067 22.364C31.3067 22.116 31.2267 21.908 31.0667 21.74C30.9067 21.572 30.6987 21.488 30.4427 21.488C30.1947 21.488 29.9907 21.572 29.8307 21.74C29.6707 21.908 29.5907 22.116 29.5907 22.364C29.5907 22.604 29.6707 22.808 29.8307 22.976C29.9987 23.144 30.2027 23.228 30.4427 23.228ZM29.8427 28.148L29.1947 27.764L34.7267 21.608L35.3747 21.98L29.8427 28.148ZM34.2947 29.144C33.7267 29.144 33.2587 28.96 32.8907 28.592C32.5147 28.216 32.3267 27.76 32.3267 27.224C32.3267 26.696 32.5147 26.244 32.8907 25.868C33.2667 25.492 33.7347 25.304 34.2947 25.304C34.8467 25.304 35.3107 25.492 35.6867 25.868C36.0627 26.244 36.2507 26.696 36.2507 27.224C36.2507 27.76 36.0627 28.216 35.6867 28.592C35.3187 28.96 34.8547 29.144 34.2947 29.144ZM34.2827 28.088C34.5387 28.088 34.7467 28.008 34.9067 27.848C35.0667 27.68 35.1467 27.472 35.1467 27.224C35.1467 26.976 35.0667 26.768 34.9067 26.6C34.7467 26.432 34.5387 26.348 34.2827 26.348C34.0347 26.348 33.8307 26.432 33.6707 26.6C33.5107 26.768 33.4307 26.976 33.4307 27.224C33.4307 27.464 33.5107 27.668 33.6707 27.836C33.8387 28.004 34.0427 28.088 34.2827 28.088Z" fill="black"/>
</svg>
