<svg width="70" height="70" viewBox="0 0 70 70" fill="none" xmlns="http://www.w3.org/2000/svg">
<circle opacity="0.15" cx="35" cy="35" r="35" fill="#0657C9"/>
<circle cx="35" cy="35" r="21" fill="#F5F5F5"/>
<path d="M35 70C27.6087 70 20.4072 67.6601 14.4275 63.3156C8.44785 58.9711 3.99705 52.8451 1.71302 45.8156C-0.571007 38.7861 -0.571007 31.2139 1.71302 24.1844C3.99706 17.1549 8.44785 11.0289 14.4275 6.6844C20.4072 2.33992 27.6087 -6.46166e-07 35 0C42.3913 6.46166e-07 49.5928 2.33992 55.5725 6.68441C61.5522 11.0289 66.003 17.1549 68.287 24.1844C70.571 31.2139 70.571 38.7861 68.287 45.8156L54.9722 41.4894C56.3426 37.2716 56.3426 32.7284 54.9722 28.5106C53.6018 24.2929 50.9313 20.6173 47.3435 18.0106C43.7557 15.404 39.4348 14 35 14C30.5652 14 26.2443 15.404 22.6565 18.0106C19.0687 20.6173 16.3982 24.2929 15.0278 28.5106C13.6574 32.7284 13.6574 37.2716 15.0278 41.4894C16.3982 45.7071 19.0687 49.3827 22.6565 51.9894C26.2443 54.596 30.5652 56 35 56L35 70Z" fill="#0657C9"/>
<path d="M28.5958 34.632C29.3718 35.096 29.7598 35.772 29.7598 36.66C29.7598 37.436 29.4878 38.048 28.9438 38.496C28.4078 38.944 27.6758 39.168 26.7478 39.168C25.8118 39.168 25.0758 38.944 24.5398 38.496C24.0038 38.048 23.7358 37.436 23.7358 36.66C23.7358 35.78 24.1198 35.104 24.8878 34.632C24.3038 34.216 24.0118 33.636 24.0118 32.892C24.0118 32.116 24.2718 31.512 24.7918 31.08C25.3198 30.648 25.9718 30.432 26.7478 30.432C27.5318 30.432 28.1798 30.648 28.6918 31.08C29.2118 31.512 29.4718 32.116 29.4718 32.892C29.4718 33.636 29.1798 34.216 28.5958 34.632ZM27.8278 32.976C27.8278 32.672 27.7278 32.432 27.5278 32.256C27.3278 32.08 27.0678 31.992 26.7478 31.992C26.4278 31.992 26.1678 32.08 25.9678 32.256C25.7678 32.432 25.6678 32.672 25.6678 32.976C25.6678 33.288 25.7678 33.532 25.9678 33.708C26.1678 33.884 26.4278 33.972 26.7478 33.972C27.0678 33.972 27.3278 33.884 27.5278 33.708C27.7278 33.532 27.8278 33.288 27.8278 32.976ZM27.7438 37.296C27.9918 37.088 28.1158 36.804 28.1158 36.444C28.1158 36.084 27.9918 35.804 27.7438 35.604C27.4958 35.396 27.1638 35.292 26.7478 35.292C26.3318 35.292 25.9998 35.396 25.7518 35.604C25.5038 35.804 25.3798 36.084 25.3798 36.444C25.3798 36.804 25.5038 37.088 25.7518 37.296C25.9998 37.504 26.3318 37.608 26.7478 37.608C27.1638 37.608 27.4958 37.504 27.7438 37.296ZM33.9402 39.168C32.8922 39.168 32.0682 38.772 31.4682 37.98C30.8762 37.172 30.5802 36.112 30.5802 34.8C30.5802 33.488 30.8762 32.432 31.4682 31.632C32.0682 30.832 32.8922 30.432 33.9402 30.432C35.0042 30.432 35.8282 30.832 36.4122 31.632C37.0042 32.432 37.3002 33.488 37.3002 34.8C37.3002 36.112 37.0042 37.172 36.4122 37.98C35.8282 38.772 35.0042 39.168 33.9402 39.168ZM35.6562 34.8C35.6562 33.904 35.5082 33.22 35.2122 32.748C34.9242 32.276 34.5002 32.04 33.9402 32.04C33.3802 32.04 32.9562 32.276 32.6682 32.748C32.3802 33.22 32.2362 33.904 32.2362 34.8C32.2362 35.696 32.3802 36.38 32.6682 36.852C32.9562 37.316 33.3802 37.548 33.9402 37.548C34.5002 37.548 34.9242 37.312 35.2122 36.84C35.5082 36.368 35.6562 35.688 35.6562 34.8ZM41.4924 33.828C41.1004 34.204 40.6204 34.392 40.0524 34.392C39.4764 34.392 38.9924 34.2 38.6004 33.816C38.2164 33.432 38.0244 32.964 38.0244 32.412C38.0244 31.86 38.2164 31.392 38.6004 31.008C39.0004 30.624 39.4844 30.432 40.0524 30.432C40.6284 30.432 41.1084 30.624 41.4924 31.008C41.8764 31.376 42.0684 31.844 42.0684 32.412C42.0684 32.972 41.8764 33.444 41.4924 33.828ZM39.5964 38.148L38.8764 37.728L44.3484 31.644L45.0804 32.052L39.5964 38.148ZM39.5004 32.964C39.6444 33.108 39.8244 33.18 40.0404 33.18C40.2564 33.18 40.4364 33.108 40.5804 32.964C40.7244 32.812 40.7964 32.628 40.7964 32.412C40.7964 32.196 40.7244 32.016 40.5804 31.872C40.4364 31.728 40.2564 31.656 40.0404 31.656C39.8244 31.656 39.6444 31.728 39.5004 31.872C39.3644 32.016 39.2964 32.196 39.2964 32.412C39.2964 32.628 39.3644 32.812 39.5004 32.964ZM46.1244 37.164C46.1244 37.716 45.9324 38.184 45.5484 38.568C45.1644 38.952 44.6844 39.144 44.1084 39.144C43.5324 39.144 43.0524 38.952 42.6684 38.568C42.2844 38.184 42.0924 37.716 42.0924 37.164C42.0924 36.612 42.2844 36.144 42.6684 35.76C43.0524 35.376 43.5324 35.184 44.1084 35.184C44.6844 35.184 45.1644 35.376 45.5484 35.76C45.9324 36.144 46.1244 36.612 46.1244 37.164ZM44.6364 37.716C44.7804 37.564 44.8524 37.38 44.8524 37.164C44.8524 36.948 44.7804 36.768 44.6364 36.624C44.5004 36.472 44.3244 36.396 44.1084 36.396C43.8924 36.396 43.7124 36.472 43.5684 36.624C43.4324 36.768 43.3644 36.948 43.3644 37.164C43.3644 37.38 43.4324 37.564 43.5684 37.716C43.7124 37.86 43.8924 37.932 44.1084 37.932C44.3244 37.932 44.5004 37.86 44.6364 37.716Z" fill="#0657C9"/>
</svg>
