<svg width="24.000000" height="24.000000" viewBox="0 0 24 24" fill="none" xmlns="http://www.w3.org/2000/svg" xmlns:xlink="http://www.w3.org/1999/xlink">
	<desc>
			Created with Pixso.
	</desc>
	<defs>
		<clipPath id="clip656_2057">
			<rect id="img" width="24.000000" height="24.000000" fill="white" fill-opacity="0"/>
		</clipPath>
	</defs>
	<rect id="img" width="24.000000" height="24.000000" fill="#FFFFFF" fill-opacity="0"/>
	<g clip-path="url(#clip656_2057)">
		<path id="Vector" d="M17.7 23.03C17.51 23.03 17.32 23 17.12 22.95L1.66 18.81C0.47 18.48 -0.24 17.25 0.07 16.06L1.77 9.54C1.87 9.14 2.28 8.89 2.68 9C3.08 9.1 3.32 9.52 3.22 9.92L1.52 16.44C1.41 16.84 1.65 17.25 2.05 17.36L17.51 21.5C17.91 21.61 18.32 21.37 18.42 20.98L18.95 18.85C19.05 18.44 19.45 18.2 19.86 18.3C20.26 18.4 20.5 18.8 20.4 19.21L19.87 21.35C19.61 22.36 18.69 23.03 17.7 23.03Z" fill="#8D8D8D" fill-opacity="1.000000" fill-rule="nonzero"/>
		<path id="Vector" d="M17.7 23.03C17.51 23.03 17.32 23 17.12 22.95L1.66 18.81C0.47 18.48 -0.24 17.25 0.07 16.06L1.77 9.54C1.87 9.14 2.28 8.89 2.68 9C3.08 9.1 3.32 9.52 3.22 9.92L1.52 16.44C1.41 16.84 1.65 17.25 2.05 17.36L17.51 21.5C17.91 21.61 18.32 21.37 18.42 20.98L18.95 18.85C19.05 18.44 19.45 18.2 19.86 18.3C20.26 18.4 20.5 18.8 20.4 19.21L19.87 21.35C19.61 22.36 18.69 23.03 17.7 23.03Z" fill="#000000" fill-opacity="0.200000" fill-rule="nonzero"/>
		<path id="Vector" d="M17.7 23.03C17.51 23.03 17.32 23 17.12 22.95L1.66 18.81C0.47 18.48 -0.24 17.25 0.07 16.06L1.77 9.54C1.87 9.14 2.28 8.89 2.68 9C3.08 9.1 3.32 9.52 3.22 9.92L1.52 16.44C1.41 16.84 1.65 17.25 2.05 17.36L17.51 21.5C17.91 21.61 18.32 21.37 18.42 20.98L18.95 18.85C19.05 18.44 19.45 18.2 19.86 18.3C20.26 18.4 20.5 18.8 20.4 19.21L19.87 21.35C19.61 22.36 18.69 23.03 17.7 23.03Z" fill="#000000" fill-opacity="0.200000" fill-rule="nonzero"/>
		<path id="Vector" d="M21.75 17.03L6.24 17.03C5 17.03 3.99 16.02 3.99 14.78L3.99 3.28C3.99 2.04 5 1.03 6.24 1.03L21.75 1.03C22.99 1.03 24 2.04 24 3.28L24 14.78C24 16.02 22.99 17.03 21.75 17.03ZM6.24 2.53C5.83 2.53 5.49 2.86 5.49 3.28L5.49 14.78C5.49 15.19 5.83 15.53 6.24 15.53L21.75 15.53C22.16 15.53 22.5 15.19 22.5 14.78L22.5 3.28C22.5 2.86 22.16 2.53 21.75 2.53L6.24 2.53Z" fill="#8D8D8D" fill-opacity="1.000000" fill-rule="nonzero"/>
		<path id="Vector" d="M21.75 17.03L6.24 17.03C5 17.03 3.99 16.02 3.99 14.78L3.99 3.28C3.99 2.04 5 1.03 6.24 1.03L21.75 1.03C22.99 1.03 24 2.04 24 3.28L24 14.78C24 16.02 22.99 17.03 21.75 17.03ZM6.24 2.53C5.83 2.53 5.49 2.86 5.49 3.28L5.49 14.78C5.49 15.19 5.83 15.53 6.24 15.53L21.75 15.53C22.16 15.53 22.5 15.19 22.5 14.78L22.5 3.28C22.5 2.86 22.16 2.53 21.75 2.53L6.24 2.53Z" fill="#000000" fill-opacity="0.200000" fill-rule="nonzero"/>
		<path id="Vector" d="M21.75 17.03L6.24 17.03C5 17.03 3.99 16.02 3.99 14.78L3.99 3.28C3.99 2.04 5 1.03 6.24 1.03L21.75 1.03C22.99 1.03 24 2.04 24 3.28L24 14.78C24 16.02 22.99 17.03 21.75 17.03ZM6.24 2.53C5.83 2.53 5.49 2.86 5.49 3.28L5.49 14.78C5.49 15.19 5.83 15.53 6.24 15.53L21.75 15.53C22.16 15.53 22.5 15.19 22.5 14.78L22.5 3.28C22.5 2.86 22.16 2.53 21.75 2.53L6.24 2.53Z" fill="#000000" fill-opacity="0.200000" fill-rule="nonzero"/>
		<path id="Vector" d="M8.99 8.03C7.89 8.03 6.99 7.13 6.99 6.03C6.99 4.92 7.89 4.03 8.99 4.03C10.1 4.03 10.99 4.92 10.99 6.03C10.99 7.13 10.1 8.03 8.99 8.03ZM8.99 5.53C8.72 5.53 8.49 5.75 8.49 6.03C8.49 6.3 8.72 6.53 8.99 6.53C9.27 6.53 9.49 6.3 9.49 6.03C9.49 5.75 9.27 5.53 8.99 5.53Z" fill="#8D8D8D" fill-opacity="1.000000" fill-rule="nonzero"/>
		<path id="Vector" d="M8.99 8.03C7.89 8.03 6.99 7.13 6.99 6.03C6.99 4.92 7.89 4.03 8.99 4.03C10.1 4.03 10.99 4.92 10.99 6.03C10.99 7.13 10.1 8.03 8.99 8.03ZM8.99 5.53C8.72 5.53 8.49 5.75 8.49 6.03C8.49 6.3 8.72 6.53 8.99 6.53C9.27 6.53 9.49 6.3 9.49 6.03C9.49 5.75 9.27 5.53 8.99 5.53Z" fill="#000000" fill-opacity="0.200000" fill-rule="nonzero"/>
		<path id="Vector" d="M8.99 8.03C7.89 8.03 6.99 7.13 6.99 6.03C6.99 4.92 7.89 4.03 8.99 4.03C10.1 4.03 10.99 4.92 10.99 6.03C10.99 7.13 10.1 8.03 8.99 8.03ZM8.99 5.53C8.72 5.53 8.49 5.75 8.49 6.03C8.49 6.3 8.72 6.53 8.99 6.53C9.27 6.53 9.49 6.3 9.49 6.03C9.49 5.75 9.27 5.53 8.99 5.53Z" fill="#000000" fill-opacity="0.200000" fill-rule="nonzero"/>
		<path id="Vector" d="M4.76 16.01C4.57 16.01 4.38 15.93 4.23 15.79C3.94 15.49 3.94 15.02 4.23 14.73L8.75 10.21C9.44 9.52 10.55 9.52 11.23 10.21L12.44 11.41L16.16 6.96C16.49 6.56 16.98 6.33 17.49 6.32C18.05 6.29 18.5 6.55 18.83 6.94L23.81 12.75C24.08 13.06 24.05 13.54 23.73 13.81C23.42 14.08 22.94 14.04 22.67 13.73L17.69 7.91C17.63 7.84 17.55 7.84 17.5 7.83C17.46 7.83 17.38 7.84 17.31 7.92L13.07 13.01C12.93 13.17 12.74 13.27 12.53 13.28C12.31 13.29 12.11 13.21 11.96 13.06L10.17 11.27C10.05 11.14 9.94 11.14 9.81 11.27L5.29 15.79C5.15 15.93 4.96 16.01 4.76 16.01Z" fill="#8D8D8D" fill-opacity="1.000000" fill-rule="nonzero"/>
		<path id="Vector" d="M4.76 16.01C4.57 16.01 4.38 15.93 4.23 15.79C3.94 15.49 3.94 15.02 4.23 14.73L8.75 10.21C9.44 9.52 10.55 9.52 11.23 10.21L12.44 11.41L16.16 6.96C16.49 6.56 16.98 6.33 17.49 6.32C18.05 6.29 18.5 6.55 18.83 6.94L23.81 12.75C24.08 13.06 24.05 13.54 23.73 13.81C23.42 14.08 22.94 14.04 22.67 13.73L17.69 7.91C17.63 7.84 17.55 7.84 17.5 7.83C17.46 7.83 17.38 7.84 17.31 7.92L13.07 13.01C12.93 13.17 12.74 13.27 12.53 13.28C12.31 13.29 12.11 13.21 11.96 13.06L10.17 11.27C10.05 11.14 9.94 11.14 9.81 11.27L5.29 15.79C5.15 15.93 4.96 16.01 4.76 16.01Z" fill="#000000" fill-opacity="0.200000" fill-rule="nonzero"/>
		<path id="Vector" d="M4.76 16.01C4.57 16.01 4.38 15.93 4.23 15.79C3.94 15.49 3.94 15.02 4.23 14.73L8.75 10.21C9.44 9.52 10.55 9.52 11.23 10.21L12.44 11.41L16.16 6.96C16.49 6.56 16.98 6.33 17.49 6.32C18.05 6.29 18.5 6.55 18.83 6.94L23.81 12.75C24.08 13.06 24.05 13.54 23.73 13.81C23.42 14.08 22.94 14.04 22.67 13.73L17.69 7.91C17.63 7.84 17.55 7.84 17.5 7.83C17.46 7.83 17.38 7.84 17.31 7.92L13.07 13.01C12.93 13.17 12.74 13.27 12.53 13.28C12.31 13.29 12.11 13.21 11.96 13.06L10.17 11.27C10.05 11.14 9.94 11.14 9.81 11.27L5.29 15.79C5.15 15.93 4.96 16.01 4.76 16.01Z" fill="#000000" fill-opacity="0.200000" fill-rule="nonzero"/>
	</g>
</svg>
