<svg width="26" height="26" viewBox="0 0 26 26" fill="none" xmlns="http://www.w3.org/2000/svg">
<path fill-rule="evenodd" clip-rule="evenodd" d="M6.49999 5.41667C5.30337 5.41667 4.33332 6.38672 4.33332 7.58333V18.4167C4.33332 19.6133 5.30337 20.5833 6.49999 20.5833H10.8333C12.0299 20.5833 13 19.6133 13 18.4167V17.3333C13 16.735 13.485 16.25 14.0833 16.25C14.6816 16.25 15.1667 16.735 15.1667 17.3333V18.4167C15.1667 20.8099 13.2266 22.75 10.8333 22.75H6.49999C4.10676 22.75 2.16666 20.8099 2.16666 18.4167V7.58333C2.16666 5.1901 4.10676 3.25 6.49999 3.25H10.8333C13.2266 3.25 15.1667 5.1901 15.1667 7.58333V8.66667C15.1667 9.26498 14.6816 9.75 14.0833 9.75C13.485 9.75 13 9.26498 13 8.66667V7.58333C13 6.38672 12.0299 5.41667 10.8333 5.41667H6.49999ZM17.6506 7.90063C18.0737 7.47757 18.7596 7.47757 19.1827 7.90063L23.516 12.234C23.9391 12.657 23.9391 13.343 23.516 13.766L19.1827 18.0994C18.7596 18.5224 18.0737 18.5224 17.6506 18.0994C17.2276 17.6763 17.2276 16.9904 17.6506 16.5673L20.1346 14.0833L7.58332 14.0833C6.98501 14.0833 6.49999 13.5983 6.49999 13C6.49999 12.4017 6.98501 11.9167 7.58332 11.9167L20.1346 11.9167L17.6506 9.4327C17.2276 9.00963 17.2276 8.3237 17.6506 7.90063Z" fill="black"/>
</svg>
