<svg width="24.000000" height="24.000000" viewBox="0 0 24 24" fill="none" xmlns="http://www.w3.org/2000/svg" xmlns:xlink="http://www.w3.org/1999/xlink">
	<desc>
			Created with Pixso.
	</desc>
	<defs>
		<clipPath id="clip654_1512">
			<rect width="24.000000" height="24.000000" fill="white" fill-opacity="0"/>
		</clipPath>
	</defs>
	<g clip-path="url(#clip654_1512)">
		<path d="M11.04 2.92L9.53 7.6C9.39 8.01 9.01 8.29 8.57 8.29L3.66 8.29C2.69 8.29 2.29 9.53 3.07 10.1L7.05 12.98C7.4 13.24 7.54 13.69 7.41 14.1L5.89 18.78C5.59 19.7 6.65 20.46 7.43 19.89L11.41 17.01C11.76 16.75 12.23 16.75 12.58 17.01L16.56 19.89C17.34 20.46 18.4 19.7 18.1 18.78L16.58 14.1C16.45 13.69 16.59 13.24 16.94 12.98L20.92 10.1C21.7 9.53 21.3 8.29 20.33 8.29L15.42 8.29C14.98 8.29 14.6 8.01 14.46 7.6L12.95 2.92C12.65 2 11.34 2 11.04 2.92Z" fill="#FFD600" fill-opacity="1.000000" fill-rule="evenodd"/>
		<path d="M9.53 7.6C9.39 8.01 9.01 8.29 8.57 8.29L3.66 8.29C2.69 8.29 2.29 9.53 3.07 10.1L7.05 12.98C7.4 13.24 7.54 13.69 7.41 14.1L5.89 18.78C5.59 19.7 6.65 20.46 7.43 19.89L11.41 17.01C11.76 16.75 12.23 16.75 12.58 17.01L16.56 19.89C17.34 20.46 18.4 19.7 18.1 18.78L16.58 14.1C16.45 13.69 16.59 13.24 16.94 12.98L20.92 10.1C21.7 9.53 21.3 8.29 20.33 8.29L15.42 8.29C14.98 8.29 14.6 8.01 14.46 7.6L12.95 2.92C12.65 2 11.34 2 11.04 2.92L9.53 7.6Z" stroke="#FFD600" stroke-opacity="1.000000" stroke-width="2.000000"/>
	</g>
</svg>
