<svg width="56" height="56" viewBox="0 0 56 56" fill="none" xmlns="http://www.w3.org/2000/svg">
<rect x="4" y="4" width="48" height="48" rx="24" fill="#FEE4E2"/>
<rect x="4" y="4" width="48" height="48" rx="24" stroke="#FEF3F2" stroke-width="8"/>
<path fill-rule="evenodd" clip-rule="evenodd" d="M28 19C23.0294 19 19 23.0294 19 28C19 32.9706 23.0294 37 28 37C32.9706 37 37 32.9706 37 28C37 23.0294 32.9706 19 28 19ZM17 28C17 21.9249 21.9249 17 28 17C34.0751 17 39 21.9249 39 28C39 34.0751 34.0751 39 28 39C21.9249 39 17 34.0751 17 28ZM28 23C28.5523 23 29 23.4477 29 24V28C29 28.5523 28.5523 29 28 29C27.4477 29 27 28.5523 27 28V24C27 23.4477 27.4477 23 28 23ZM27 32C27 31.4477 27.4477 31 28 31H28.01C28.5623 31 29.01 31.4477 29.01 32C29.01 32.5523 28.5623 33 28.01 33H28C27.4477 33 27 32.5523 27 32Z" fill="#FB232C"/>
</svg>
