<svg width="32" height="32" viewBox="0 0 32 32" fill="none" xmlns="http://www.w3.org/2000/svg">
<circle cx="16" cy="16" r="16" fill="black"/>
<path d="M10.3302 10.6667C7.57698 10.6667 5.33325 12.8026 5.33325 15.5559C5.33325 18.3287 7.61618 20.4646 10.3302 20.4646C13.0443 20.4646 15.3272 18.3287 15.3272 15.5559C15.3272 12.8026 13.0835 10.6667 10.3302 10.6667ZM10.3302 19.0537C8.40002 19.0537 6.91072 17.4665 6.91072 15.5559C6.91072 13.6354 8.4196 12.0678 10.3302 12.0678C12.2408 12.0678 13.7497 13.6354 13.7497 15.5559C13.7497 17.4665 12.2604 19.0537 10.3302 19.0537Z" fill="white"/>
<path d="M26.8294 15.5559C26.8294 12.8026 24.5857 10.6667 21.8324 10.6667C19.0792 10.6667 16.8354 12.8026 16.8354 15.5559C16.8354 18.3287 19.1184 20.4646 21.8324 20.4646C22.6511 20.4656 23.4579 20.2683 24.1839 19.8897L25.403 21.3333L26.6709 20.2626L25.5093 18.887C26.3606 17.9872 26.8333 16.7945 26.8294 15.5559ZM21.8324 19.0537C19.9022 19.0537 18.4129 17.4665 18.4129 15.5559C18.4129 13.6354 19.9218 12.0678 21.8324 12.0678C23.743 12.0678 25.2519 13.6354 25.2519 15.5559C25.254 16.3377 24.9981 17.0984 24.5239 17.7201L23.8036 16.8672L22.5357 17.9379L23.2257 18.7551C22.7879 18.9529 22.3128 19.0547 21.8324 19.0537Z" fill="white"/>
</svg>
