<svg xmlns="http://www.w3.org/2000/svg" xmlns:xlink="http://www.w3.org/1999/xlink" version="1.1" x="0px" y="0px" viewBox="0 0 100 125" style="enable-background:new 0 0 100 100;" xml:space="preserve"><path d="M83.663,83.54l-3.385-44C80.04,36.434,77.412,34,74.296,34H66v-8c0-8.822-7.178-16-16-16s-16,7.178-16,16v8h-8.296  c-3.116,0-5.744,2.434-5.982,5.54l-3.385,44c-0.128,1.661,0.448,3.314,1.58,4.537S20.653,90,22.319,90h55.361  c1.666,0,3.271-0.701,4.402-1.923S83.791,85.201,83.663,83.54z M38,26c0-6.617,5.383-12,12-12s12,5.383,12,12v8H38V26z   M65.906,44.606c-2.248,7.065-8.492,11.63-15.906,11.63s-13.658-4.565-15.906-11.63c-0.335-1.053,0.247-2.177,1.3-2.512  c1.054-0.337,2.177,0.246,2.513,1.299c2.074,6.521,7.607,8.843,12.094,8.843s10.02-2.323,12.094-8.843  c0.336-1.053,1.46-1.636,2.513-1.299C65.659,42.429,66.241,43.554,65.906,44.606z"/><text x="0" y="115" fill="#000000" font-size="5px" font-weight="bold" font-family="'Helvetica Neue', Helvetica, Arial-Unicode, Arial, Sans-serif">Created by Setyo Ari Wibowo</text><text x="0" y="120" fill="#000000" font-size="5px" font-weight="bold" font-family="'Helvetica Neue', Helvetica, Arial-Unicode, Arial, Sans-serif">from the Noun Project</text></svg>