<svg xmlns="http://www.w3.org/2000/svg" xmlns:xlink="http://www.w3.org/1999/xlink" version="1.1" x="0px" y="0px" viewBox="0 0 512 640" style="enable-background:new 0 0 512 512;" xml:space="preserve"><title>bag</title><g><path d="M317.6,205.3c0.2,0,0.3-0.1,0.3-0.3s-0.1-0.3-0.3-0.3s-0.3,0.1-0.3,0.3S317.4,205.3,317.6,205.3z"/><polygon points="412.7,146.6 399.3,146.3 399.3,452 441.3,486  "/><circle cx="169.6" cy="205" r="0.3"/><polygon points="70.7,492.2 334.7,492.2 341.6,422.2 76.6,422.2  "/><path d="M329,145.7v40.1c10.6,6.3,14.1,20,7.9,30.6c-6.3,10.6-20,14.1-30.6,7.9c-10.6-6.3-14.1-20-7.9-30.6c2.1-3.5,5-6.3,8.6-8.3   v-39.7H180.3v39.7c10.8,5.9,14.8,19.5,9,30.3c-5.9,10.8-19.5,14.8-30.3,9c-10.8-5.9-14.8-19.5-9-30.3c1.9-3.6,4.8-6.5,8.3-8.6   v-40.1H99.9L77.4,412.2h265.1l26.2-266.5H329z M151.2,278.4h59.5c2.8,0,5,2.2,5,5s-2.2,5-5,5h-59.5c-2.8,0-5-2.2-5-5   S148.4,278.4,151.2,278.4z M113,346c-0.2,2.6-2.4,4.6-5,4.6c-0.1,0-0.3,0-0.4,0c-2.8-0.2-4.8-2.6-4.6-5.4l8.9-106.1   c0.2-2.8,2.7-4.8,5.4-4.6s4.8,2.7,4.6,5.4L113,346z M124.2,212.6l-0.7,7.8c-0.2,2.6-2.4,4.6-5,4.6c-0.1,0-0.3,0-0.4,0   c-2.8-0.2-4.8-2.6-4.6-5.4l0.7-7.8c0.2-2.8,2.6-4.8,5.3-4.6c2.8,0.2,4.8,2.6,4.6,5.3C124.2,212.6,124.2,212.6,124.2,212.6z    M290.4,343.4H150.9c-2.8,0-5-2.2-5-5s2.2-5,5-5h139.5c2.8,0,5,2.2,5,5S293.2,343.4,290.4,343.4z M290.4,313.4H150.9   c-2.8,0-5-2.2-5-5s2.2-5,5-5h139.5c2.8,0,5,2.2,5,5S293.2,313.4,290.4,313.4z"/><polygon points="389.3,146.1 378.8,145.8 345.4,486.4 389.3,453.5  "/><polygon points="354.3,492.2 433.1,492.2 395.2,461.6  "/><path d="M153.3,205c0,9,7.3,16.3,16.3,16.3s16.3-7.3,16.3-16.3c0-7.2-4.7-13.6-11.7-15.7V99.1c0.1-38.3,31.3-69.2,69.6-69.1   c38.1,0.1,68.9,31,69.1,69.1v90.2c-8.7,2.6-13.6,11.7-11,20.3c2.6,8.7,11.7,13.6,20.3,11c8.7-2.6,13.6-11.7,11-20.3   c-1.5-5.1-5.3-9.1-10.3-10.8V99.1c-0.2-43.8-35.8-79.2-79.6-79.1c-43.6,0.2-78.9,35.5-79.1,79.1v90.5   C157.7,191.9,153.3,198,153.3,205z M317.6,198.7c3.5,0,6.3,2.8,6.3,6.3c0,3.5-2.8,6.3-6.3,6.3c-3.5,0-6.3-2.8-6.3-6.3   C311.3,201.5,314.1,198.7,317.6,198.7z M169.6,198.7c3.5,0,6.3,2.8,6.3,6.3s-2.8,6.3-6.3,6.3c-3.5,0-6.3-2.8-6.3-6.3   C163.3,201.5,166.1,198.7,169.6,198.7z"/></g><text x="0" y="527" fill="#000000" font-size="5px" font-weight="bold" font-family="'Helvetica Neue', Helvetica, Arial-Unicode, Arial, Sans-serif">Created by Icongeek26</text><text x="0" y="532" fill="#000000" font-size="5px" font-weight="bold" font-family="'Helvetica Neue', Helvetica, Arial-Unicode, Arial, Sans-serif">from the Noun Project</text></svg>