<svg xmlns="http://www.w3.org/2000/svg" data-name="Layer 1" viewBox="0 0 100 125" x="0px" y="0px"><path d="M43.4,72.5a7.4,7.4,0,1,0,7.4,7.4A7.3833,7.3833,0,0,0,43.4,72.5Zm0,10a2.7,2.7,0,1,1,2.7-2.7A2.68877,2.68877,0,0,1,43.4,82.5Z"/><path d="M69.238,72.5a7.4,7.4,0,1,0,7.4,7.4A7.3833,7.3833,0,0,0,69.238,72.5Zm0,10a2.7,2.7,0,1,1,2.7-2.7A2.68877,2.68877,0,0,1,69.238,82.5Z"/><path d="M84.17755,24.68726a3.04726,3.04726,0,0,1-.48151.578L73.63275,35.28033a3.545,3.545,0,0,1-.48144.43317A7.7605,7.7605,0,0,0,77.966,37.3504,7.97665,7.97665,0,0,0,85.81445,29.502,7.65879,7.65879,0,0,0,84.17755,24.68726Z"/><path d="M82.6842,23.19458a7.87256,7.87256,0,0,0-12.61486,6.25977,7.57512,7.57512,0,0,0,1.58923,4.76648c.19244-.19245.289-.33729.43323-.48145L82.15448,23.676C82.34692,23.48358,82.54,23.33875,82.6842,23.19458Z"/><path d="M77.65,16.966A12.536,12.536,0,1,0,90.186,29.502,12.5927,12.5927,0,0,0,77.65,16.966Zm.316,22.647A10.111,10.111,0,1,1,88.077,29.502,10.172,10.172,0,0,1,77.966,39.613Z"/><path d="M96.71729,29.502A19.06679,19.06679,0,0,0,58.98712,25.6H23.6l-3.2-9.1a5.58284,5.58284,0,0,0-5.3-3.9H6.8a2.3529,2.3529,0,1,0-.2,4.7H15a.76038.76038,0,0,1,.8.6L32.5,66a5.58282,5.58282,0,0,0,5.3,3.9H78.6a2.3529,2.3529,0,1,0,.2-4.7h-41a.76042.76042,0,0,1-.8-.6L34.4,56v-.1H80.8A3.2432,3.2432,0,0,0,84,53.6l2.48669-7.21753A19.07638,19.07638,0,0,0,96.71729,29.502ZM27.7,37.6l-2.6-7.2c-.1-.2.1-.4.3-.4H39.7a1.76455,1.76455,0,0,1,2.1,1.4l1.6,7.1c0,.2-.1.4-.3.4H29.6A2.05069,2.05069,0,0,1,27.7,37.6Zm6.6,14.1a1.91425,1.91425,0,0,1-1.9-1.3l-2.6-7.2c-.1-.2.1-.4.3-.4H42.8a1.927,1.927,0,0,1,1.9,1.5l1.7,7.4Zm13-14.3-1.6-6.9c0-.2.1-.4.3-.4H58.61279A18.9216,18.9216,0,0,0,61.08,38.9H49.2A1.927,1.927,0,0,1,47.3,37.4Zm14.4,14H52.1A1.75023,1.75023,0,0,1,50.2,50l-1.6-6.8c0-.2.1-.4.3-.4H64.01154c.23272.23865.47876.46252.72363.68878L63.7,49.7A2.03405,2.03405,0,0,1,61.7,51.4Zm19.1-1a2.14928,2.14928,0,0,1-1.9,1.4H67.5l.86462-5.65955a18.95523,18.95523,0,0,0,13.226,2.01435ZM77.6499,47.56934A18.06739,18.06739,0,1,1,95.71729,29.502,18.08783,18.08783,0,0,1,77.6499,47.56934Z"/><text x="0" y="115" fill="#000000" font-size="5px" font-weight="bold" font-family="'Helvetica Neue', Helvetica, Arial-Unicode, Arial, Sans-serif">Created by Kristina Margaryan</text><text x="0" y="120" fill="#000000" font-size="5px" font-weight="bold" font-family="'Helvetica Neue', Helvetica, Arial-Unicode, Arial, Sans-serif">from the Noun Project</text></svg>