<svg xmlns="http://www.w3.org/2000/svg" data-name="Layer 1" viewBox="0 0 100 125" x="0px" y="0px"><g><path d="M81.9547726,68.9569285c-1.6912481-1.3151792-3.9470872-2.0673743-6.2029837-2.0673743-5.5772162,0-10.2137151,4.6373023-10.2137151,10.2137151,0,2.3806598,.7521951,4.5737156,2.0681777,6.2029837,.2505021-.2504447,.3761262-.4389096,.5637876-.626571l13.0953217-13.0961826c.2505021-.2504447,.5017503-.4389096,.6894117-.626571Z"/><path d="M83.898187,70.8994822c-.1876614,.3132855-.438967,.5645911-.626571,.7521951l-13.0961826,13.0333992c-.2505021,.2504447-.438967,.4381061-.626571,.5637302,1.6912481,1.3779626,4.0099279,2.130215,6.2657671,2.130215,5.513572,0,10.1509317-4.6365563,10.2137725-10.2137151,0-2.3807172-.751449-4.5117356-2.130215-6.2658245Z"/><path d="M75.769743,64.132223c7.2388,0,13.1279907,5.8891907,13.1279907,13.1279907s-5.8891907,13.1279907-13.1279907,13.1279907-13.1279907-5.8891907-13.1279907-13.1279907,5.8891907-13.1279907,13.1279907-13.1279907m0-3c-8.9072571,0-16.1279907,7.2207336-16.1279907,16.1279907,0,8.9072266,7.2207336,16.1279907,16.1279907,16.1279907,8.9072266,0,16.1279907-7.2207642,16.1279907-16.1279907,0-8.9072571-7.2207642-16.1279907-16.1279907-16.1279907h0Z"/></g><path d="M72.8707517,17.3659337c-1.2450633-3.3872012-4.1683861-5.5759379-7.4476238-5.5759379h-4.3519048c-.1704787-2.183559-1.9903243-3.9230553-4.215688-3.9230553h-13.1111342c-2.2252998,0-4.0452093,1.7394963-4.215688,3.9230553h-4.3514573c-3.2796213,0-6.203008,2.1887367-7.4480713,5.5759379l-5.3971494,14.6815581h3.4945894l4.8931922-13.3106972c.7455167-2.0273988,2.4949207-3.3370867,4.4574392-3.3370867h4.5628458c.5723533,1.6716755,2.1450783,2.8898279,4.0042995,2.8898279h13.1111342c1.8592852,0,3.4320102-1.2181524,4.0042995-2.8898279h4.5632932c1.962071,0,3.711539,1.309688,4.4570556,3.3370867l4.8931922,13.3106972h3.4945894l-5.3972133-14.6815581Z"/><path d="M57.5325317,81.6606445h-5.7841797l-.0657349-12.2800293h6.5782471c.427002-1.0668335,.949707-2.081665,1.5497437-3.0460205h-8.1442261l-.0571899-10.6920166h14.5176392l-.3609009,4.6053467c1.1156006-.7254639,2.3109131-1.333374,3.5682983-1.8217163l.2181396-2.7836304h12.5063477l-.3990479,2.1838989c1.1278076,.3150635,2.2106323,.7301025,3.2462158,1.2325439l4.4376221-24.2858887H11.2565308l7.0114746,38.3719482c1.2631226,6.9125977,7.2801514,11.9302368,14.3076782,11.9302368h26.2182007c-.5224609-1.0870972-.9454956-2.227356-1.2613525-3.4146729Zm13.3878174-43.4728394h14.3277588l-2.5654297,14.0401001h-12.8626709l1.1003418-14.0401001Zm-53.0029907,14.0401001l-2.5654297-14.0401001h13.5765381l1.1003418,14.0401001h-12.1114502Zm.6239014,3.4146729h11.755127l.8379517,10.6920166h-10.6394043l-1.9536743-10.6920166Zm3.0858765,16.8884277l-.5756226-3.1503906h10.3214722l.9616089,12.2692261c-5.272583-.1135864-9.7553711-3.9085083-10.7074585-9.1188354Zm10.7268677-34.3432007h15.7470093l.0751343,14.0401001h-14.7218018l-1.1003418-14.0401001Zm1.367981,17.4547729h14.4724121l.0571899,10.6920166h-13.6917114l-.8378906-10.6920166Zm2.0390015,26.0180664l-.9624023-12.2800293h13.4692993l.0656738,12.2800293h-12.5725708Zm15.7548218-43.4728394h15.9790039l-1.1003418,14.0401001h-14.8035278l-.0751343-14.0401001Z"/><text x="0" y="115" fill="#000000" font-size="5px" font-weight="bold" font-family="'Helvetica Neue', Helvetica, Arial-Unicode, Arial, Sans-serif">Created by Kristina Margaryan</text><text x="0" y="120" fill="#000000" font-size="5px" font-weight="bold" font-family="'Helvetica Neue', Helvetica, Arial-Unicode, Arial, Sans-serif">from the Noun Project</text></svg>