<svg xmlns="http://www.w3.org/2000/svg" viewBox="0 0 128 160" fill="none" x="0px" y="0px"><path fill-rule="evenodd" clip-rule="evenodd" d="M87.2375 25.263C88.3761 23.8404 90.0996 23.0123 91.9218 23.0123H102C103.104 23.0123 104 23.9077 104 25.0123C104 26.1168 103.104 27.0123 102 27.0123H91.9218C91.3144 27.0123 90.7399 27.2883 90.3603 27.7625L87.4394 31.4119C86.9153 32.0666 87.3815 33.0367 88.2201 33.0367H102.049C103.935 33.0367 105.353 34.7555 104.995 36.6067L103.327 45.2267C103.236 45.697 102.824 46.0367 102.345 46.0367H87.0768C85.9722 46.0367 85.0768 46.9322 85.0768 48.0367C85.0768 49.1413 85.9722 50.0367 87.0768 50.0367H101.184C101.812 50.0367 102.285 50.6097 102.166 51.2267L100.037 62.2267C99.9462 62.697 99.5344 63.0367 99.0554 63.0367H74.0768C72.9722 63.0367 72.0768 63.9322 72.0768 65.0367C72.0768 66.1413 72.9722 67.0367 74.0768 67.0367H97.8944C98.5229 67.0367 98.9956 67.6097 98.8762 68.2267L97.2923 76.4127C96.6552 79.7049 93.773 82.0829 90.4197 82.0829H37.6569C34.3036 82.0829 31.4214 79.7049 30.7843 76.4127L23.0821 36.6067C22.7239 34.7555 24.142 33.0367 26.0275 33.0367H35.8019C36.5146 33.0367 36.9985 33.761 36.7258 34.4194L34.317 40.2346C34.114 40.7247 34.114 41.2753 34.317 41.7654L38.9551 52.9626C39.158 53.4526 39.5474 53.842 40.0374 54.0449L51.2346 58.683C51.7247 58.886 52.2753 58.886 52.7654 58.683L63.9626 54.045C64.4526 53.842 64.842 53.4526 65.0449 52.9626L69.683 41.7654C69.886 41.2753 69.886 40.7247 69.683 40.2346L67.2742 34.4194C67.0015 33.761 67.4854 33.0367 68.1981 33.0367H80.5349C80.8386 33.0367 81.1258 32.8987 81.3156 32.6616L87.2375 25.263ZM35.9999 95.5367C35.9999 90.29 40.2532 86.0367 45.4999 86.0367C50.7466 86.0367 54.9999 90.29 54.9999 95.5367C54.9999 100.783 50.7466 105.037 45.4999 105.037C40.2532 105.037 35.9999 100.783 35.9999 95.5367ZM82.4999 86.0367C77.2532 86.0367 72.9999 90.29 72.9999 95.5367C72.9999 100.783 77.2532 105.037 82.4999 105.037C87.7466 105.037 91.9999 100.783 91.9999 95.5367C91.9999 90.29 87.7466 86.0367 82.4999 86.0367ZM88.0768 54.0367C89.1814 54.0367 90.0768 54.9322 90.0768 56.0367C90.0768 57.1413 89.1814 58.0367 88.0768 58.0367H80.0768C78.9722 58.0367 78.0768 57.1413 78.0768 56.0367C78.0768 54.9322 78.9722 54.0367 80.0768 54.0367H88.0768ZM36.817 40.2346C36.614 40.7247 36.614 41.2753 36.817 41.7654L40.7228 51.1948C40.9258 51.6848 41.3152 52.0742 41.8052 52.2772L51.2346 56.183C51.7247 56.386 52.2753 56.386 52.7654 56.183L62.1948 52.2772C62.6849 52.0742 63.0742 51.6848 63.2772 51.1948L67.183 41.7654C67.386 41.2753 67.386 40.7247 67.183 40.2346L63.2772 30.8052C63.0742 30.3152 62.6849 29.9258 62.1948 29.7228L52.7654 25.817C52.2753 25.614 51.7247 25.614 51.2346 25.817L41.8052 29.7228C41.3152 29.9258 40.9258 30.3152 40.7228 30.8052L36.817 40.2346ZM44.5518 45.632C43.7708 46.4131 43.7708 47.6794 44.5518 48.4605C45.3329 49.2415 46.5992 49.2415 47.3802 48.4605L51.293 44.5477C51.6835 44.1572 52.3167 44.1572 52.7072 44.5478L56.6199 48.4605C57.4009 49.2415 58.6673 49.2415 59.4483 48.4605C60.2294 47.6794 60.2294 46.4131 59.4483 45.632L55.5356 41.7193C55.1451 41.3288 55.1451 40.6956 55.5356 40.3051L59.4482 36.3925C60.2293 35.6115 60.2292 34.3451 59.4482 33.5641C58.6672 32.783 57.4008 32.783 56.6198 33.5641L52.7072 37.4767C52.3167 37.8672 51.6835 37.8672 51.293 37.4767L47.3804 33.5641C46.5993 32.783 45.333 32.783 44.5519 33.5641C43.7709 34.3451 43.7709 35.6115 44.5519 36.3925L48.4645 40.3051C48.8551 40.6956 48.8551 41.3288 48.4645 41.7193L44.5518 45.632Z" fill="black"/><text x="0" y="143" fill="#000000" font-size="5px" font-weight="bold" font-family="'Helvetica Neue', Helvetica, Arial-Unicode, Arial, Sans-serif">Created by illangArtGalley</text><text x="0" y="148" fill="#000000" font-size="5px" font-weight="bold" font-family="'Helvetica Neue', Helvetica, Arial-Unicode, Arial, Sans-serif">from the Noun Project</text></svg>