<svg xmlns="http://www.w3.org/2000/svg" data-name="Layer 1" viewBox="0 0 100 125" x="0px" y="0px"><path d="M75.4906648,61.5076731c-8.8320007,0-16.1279984,7.2960005-16.1279984,16.1279993s7.2959976,16.1279984,16.1279984,16.1279984,16.1279984-7.2960014,16.1279984-16.1280003-7.2960052-16.1279974-16.1279984-16.1279974Zm-12.5960007,16.052001c0-6.835001,5.6829987-12.5189991,12.5189972-12.5189991,2.7649994,0,5.5299988,.9220009,7.6029968,2.5340004-.2300034,.2299995-.538002,.4610004-.8450012,.7679996l-16.0509949,16.052c-.2300034,.2299995-.3840027,.4609985-.6910019,.7680016-1.612999-1.9970016-2.534996-4.6850014-2.534996-7.6030025Zm12.5960007,12.5949993c-2.7649994,0-5.6070023-.9220009-7.6800003-2.6110001,.2300034-.1539993,.4609985-.3839989,.7679977-.6909981l16.052002-15.9750004c.2300034-.2299995,.538002-.5380001,.7679977-.9220009,1.6900024,2.1499996,2.6110001,4.7619991,2.6110001,7.6800003-.0770035,6.8360004-5.7610016,12.5189991-12.5189972,12.5189991Z"/><path d="M72.8707517,17.3659337c-1.2450633-3.3872012-4.1683861-5.5759379-7.4476238-5.5759379h-4.3519048c-.1704787-2.183559-1.9903243-3.9230553-4.215688-3.9230553h-13.1111342c-2.2252998,0-4.0452093,1.7394963-4.215688,3.9230553h-4.3514573c-3.2796213,0-6.203008,2.1887367-7.4480713,5.5759379l-5.3971494,14.6815581h3.4945894l4.8931922-13.3106972c.7455167-2.0273988,2.4949207-3.3370867,4.4574392-3.3370867h4.5628458c.5723533,1.6716755,2.1450783,2.8898279,4.0042995,2.8898279h13.1111342c1.8592852,0,3.4320102-1.2181524,4.0042995-2.8898279h4.5632932c1.962071,0,3.711539,1.309688,4.4570556,3.3370867l4.8931922,13.3106972h3.4945894l-5.3972133-14.6815581Z"/><path d="M56.0511475,81.6606445h-4.3027954l-.0657349-12.2800293h5.7972412c.5009766-1.0717163,1.0906372-2.0908813,1.7697144-3.0460205h-7.5831909l-.0571899-10.6920166h14.5176392l-.3823242,4.8788452c1.1196899-.6182861,2.3046875-1.1315918,3.5448608-1.5228882l.2630005-3.355957h12.5063477l-.6373291,3.4882202c1.1190186,.3777466,2.1959839,.8446045,3.2139282,1.4091187l4.7081909-25.7667847H11.2565308l7.0114746,38.3719482c1.2631226,6.9125977,7.2801514,11.9302368,14.3076782,11.9302368h24.5307617c-.4504395-1.0925903-.8078003-2.2330933-1.0552979-3.4146729Zm14.8692017-43.4728394h14.3277588l-2.5654297,14.0401001h-12.8626709l1.1003418-14.0401001Zm-53.0029907,14.0401001l-2.5654297-14.0401001h13.5765381l1.1003418,14.0401001h-12.1114502Zm.6239014,3.4146729h11.755127l.8379517,10.6920166h-10.6394043l-1.9536743-10.6920166Zm3.0858765,16.8884277l-.5756226-3.1503906h10.3214722l.9616089,12.2692261c-5.272583-.1135864-9.7553711-3.9085083-10.7074585-9.1188354Zm10.7268677-34.3432007h15.7470093l.0751343,14.0401001h-14.7218018l-1.1003418-14.0401001Zm1.367981,17.4547729h14.4724121l.0571899,10.6920166h-13.6917114l-.8378906-10.6920166Zm2.0390015,26.0180664l-.9624023-12.2800293h13.4692993l.0656738,12.2800293h-12.5725708Zm15.7548218-43.4728394h15.9790039l-1.1003418,14.0401001h-14.8035278l-.0751343-14.0401001Z"/><text x="0" y="115" fill="#000000" font-size="5px" font-weight="bold" font-family="'Helvetica Neue', Helvetica, Arial-Unicode, Arial, Sans-serif">Created by Kristina Margaryan</text><text x="0" y="120" fill="#000000" font-size="5px" font-weight="bold" font-family="'Helvetica Neue', Helvetica, Arial-Unicode, Arial, Sans-serif">from the Noun Project</text></svg>