<svg xmlns="http://www.w3.org/2000/svg" xmlns:xlink="http://www.w3.org/1999/xlink" version="1.1" x="0px" y="0px" viewBox="0 0 1024 1280" style="enable-background:new 0 0 1024 1024;" xml:space="preserve"><g><path d="M931.32,651.41v97.34c0,5.52-4.47,10-10,10H739.76c0.66-3.23,1.01-6.58,1.01-10V626.93c0-19.55-4.84-38.93-13.99-56.04   c-0.76-1.42-1.55-2.83-2.37-4.22l38.19,45.88l39.12-47.01c2.57-3.09,6.75-4.34,10.59-3.17l68.38,20.73   C910.98,592.31,931.32,619.76,931.32,651.41z"/><path d="M283.23,626.93v121.82c0,3.42,0.35,6.77,1.01,10H102.68c-5.53,0-10-4.48-10-10v-97.34c0-31.66,20.34-59.11,50.63-68.31   l68.38-20.73c3.84-1.17,8.01,0.08,10.59,3.17l39.12,47l38.19-45.88c-0.84,1.42-1.64,2.85-2.4,4.28   C288.06,588.04,283.23,607.4,283.23,626.93z"/><path d="M581.35,290.12c21.35,21.53,31.4,51.1,27.59,81.14l-6.29,49.63c-3.27,25.83-17.47,49.1-38.94,63.85   c-15.28,10.49-33.16,16.04-51.71,16.04s-36.44-5.55-51.72-16.04c-21.47-14.75-35.66-38.02-38.93-63.85l-6.29-49.63   c-3.53-27.83,5.09-55.86,23.63-76.9s45.26-33.11,73.31-33.11C538.25,261.25,562.88,271.51,581.35,290.12z"/><path d="M850.34,423.15l-5.59,44.07c-2.96,23.41-15.83,44.5-35.28,57.86c-13.85,9.51-30.06,14.54-46.87,14.54   c-16.82,0-33.03-5.03-46.87-14.54c-19.46-13.36-32.32-34.45-35.29-57.86l-5.59-44.07c-3.19-25.18,4.61-50.55,21.4-69.6   c16.78-19.04,40.96-29.96,66.35-29.96c23.76,0,46.05,9.28,62.77,26.13C844.69,369.2,853.79,395.96,850.34,423.15z"/><path d="M324.17,349.72c19.32,19.48,28.42,46.24,24.97,73.43l-5.58,44.07c-2.97,23.41-15.83,44.5-35.29,57.86   c-13.85,9.51-30.05,14.54-46.87,14.54c-16.81,0-33.02-5.03-46.87-14.54c-19.46-13.36-32.32-34.45-35.29-57.86l-5.58-44.07   c-3.19-25.18,4.61-50.55,21.39-69.6c16.78-19.04,40.97-29.96,66.35-29.96C285.16,323.59,307.46,332.87,324.17,349.72z"/><path d="M700.77,626.93v121.82c0,5.52-4.48,10-10,10H333.23c-5.52,0-10-4.48-10-10V626.93c0-13.13,3.17-25.79,9.26-37.18   c1.61-3.03,3.44-5.97,5.46-8.8c0.28-0.38,0.56-0.77,0.84-1.15c1.88-2.54,3.9-4.95,6.03-7.22c9.43-10,21.21-17.32,34.55-21.37   l77-23.35c0.95-0.29,1.93-0.43,2.89-0.43c2.93,0,5.77,1.29,7.7,3.61l45.04,54.1l45.03-54.1c1.93-2.32,4.77-3.61,7.7-3.61   c0.96,0,1.94,0.14,2.89,0.43l77.01,23.35c13.34,4.05,25.13,11.37,34.55,21.38c2.13,2.27,4.14,4.67,6.02,7.21   c0.28,0.38,0.56,0.77,0.84,1.15c2.03,2.83,3.85,5.77,5.47,8.8C697.6,601.14,700.77,613.8,700.77,626.93z"/></g><text x="0" y="1039" fill="#000000" font-size="5px" font-weight="bold" font-family="'Helvetica Neue', Helvetica, Arial-Unicode, Arial, Sans-serif">Created by shashank singh</text><text x="0" y="1044" fill="#000000" font-size="5px" font-weight="bold" font-family="'Helvetica Neue', Helvetica, Arial-Unicode, Arial, Sans-serif">from the Noun Project</text></svg>