<svg width="20" height="20" viewBox="0 0 20 20" fill="none" xmlns="http://www.w3.org/2000/svg">
<path fill-rule="evenodd" clip-rule="evenodd" d="M2.5 5C2.5 3.61929 3.61929 2.5 5 2.5L6.66667 2.5C8.04738 2.5 9.16667 3.61929 9.16667 5V6.66667C9.16667 8.04738 8.04738 9.16667 6.66667 9.16667H5C3.61929 9.16667 2.5 8.04738 2.5 6.66667L2.5 5ZM5 4.16667C4.53976 4.16667 4.16667 4.53976 4.16667 5L4.16667 6.66667C4.16667 7.1269 4.53976 7.5 5 7.5L6.66667 7.5C7.1269 7.5 7.5 7.1269 7.5 6.66667L7.5 5C7.5 4.53976 7.1269 4.16667 6.66667 4.16667L5 4.16667ZM10.8333 5C10.8333 3.61929 11.9526 2.5 13.3333 2.5L15 2.5C16.3807 2.5 17.5 3.61929 17.5 5V6.66667C17.5 8.04738 16.3807 9.16667 15 9.16667H13.3333C11.9526 9.16667 10.8333 8.04738 10.8333 6.66667V5ZM13.3333 4.16667C12.8731 4.16667 12.5 4.53976 12.5 5V6.66667C12.5 7.1269 12.8731 7.5 13.3333 7.5H15C15.4602 7.5 15.8333 7.1269 15.8333 6.66667V5C15.8333 4.53976 15.4602 4.16667 15 4.16667H13.3333ZM2.5 13.3333C2.5 11.9526 3.61929 10.8333 5 10.8333H6.66667C8.04738 10.8333 9.16667 11.9526 9.16667 13.3333V15C9.16667 16.3807 8.04738 17.5 6.66667 17.5H5C3.61929 17.5 2.5 16.3807 2.5 15L2.5 13.3333ZM5 12.5C4.53976 12.5 4.16667 12.8731 4.16667 13.3333V15C4.16667 15.4602 4.53976 15.8333 5 15.8333H6.66667C7.1269 15.8333 7.5 15.4602 7.5 15V13.3333C7.5 12.8731 7.1269 12.5 6.66667 12.5H5ZM10.8333 13.3333C10.8333 11.9526 11.9526 10.8333 13.3333 10.8333H15C16.3807 10.8333 17.5 11.9526 17.5 13.3333V15C17.5 16.3807 16.3807 17.5 15 17.5H13.3333C11.9526 17.5 10.8333 16.3807 10.8333 15V13.3333ZM13.3333 12.5C12.8731 12.5 12.5 12.8731 12.5 13.3333V15C12.5 15.4602 12.8731 15.8333 13.3333 15.8333H15C15.4602 15.8333 15.8333 15.4602 15.8333 15V13.3333C15.8333 12.8731 15.4602 12.5 15 12.5H13.3333Z" fill="black"/>
</svg>
