<svg width="20" height="20" viewBox="0 0 20 20" fill="none" xmlns="http://www.w3.org/2000/svg">
<path d="M7.5 11.6667L12.5 6.66667M7.91669 7.08333H7.92502M12.0834 11.25H12.0917M15.8333 17.5V4.16667C15.8333 3.24619 15.0871 2.5 14.1667 2.5H5.83333C4.91286 2.5 4.16666 3.24619 4.16666 4.16667V17.5L7.08333 15.8333L10 17.5L12.9167 15.8333L15.8333 17.5ZM8.33333 7.08333C8.33333 7.31345 8.14678 7.5 7.91666 7.5C7.68655 7.5 7.5 7.31345 7.5 7.08333C7.5 6.85321 7.68655 6.66667 7.91666 6.66667C8.14678 6.66667 8.33333 6.85321 8.33333 7.08333ZM12.5 11.25C12.5 11.4801 12.3135 11.6667 12.0833 11.6667C11.8532 11.6667 11.6667 11.4801 11.6667 11.25C11.6667 11.0199 11.8532 10.8333 12.0833 10.8333C12.3135 10.8333 12.5 11.0199 12.5 11.25Z" stroke="black" stroke-width="1.5" stroke-linecap="round" stroke-linejoin="round"/>
</svg>
