<svg width="20" height="20" viewBox="0 0 20 20" fill="none" xmlns="http://www.w3.org/2000/svg">
<g id="Home">
<path id="Home_2" d="M7.2805 18.7822V15.7154C7.28048 14.9382 7.91423 14.3068 8.69922 14.3019H11.5816C12.3701 14.3019 13.0093 14.9348 13.0093 15.7154V18.7733C13.0092 19.4474 13.5586 19.9952 14.2394 20.0001H16.2059C17.1243 20.0025 18.0059 19.6429 18.6562 19.0008C19.3064 18.3587 19.6719 17.4869 19.6719 16.5776V7.86597C19.6718 7.13151 19.343 6.43483 18.7739 5.96362L12.0934 0.67439C10.9256 -0.250755 9.25774 -0.22087 8.12455 0.745506L1.58765 5.96362C0.991689 6.42094 0.635492 7.11968 0.617889 7.86597V16.5688C0.617889 18.4638 2.16967 20.0001 4.08388 20.0001H6.00544C6.33325 20.0025 6.64846 19.8752 6.8811 19.6465C7.11375 19.4179 7.24459 19.1068 7.24458 18.7822H7.2805Z" fill="#0657C9"/>
</g>
</svg>
