<svg xmlns="http://www.w3.org/2000/svg" xmlns:xlink="http://www.w3.org/1999/xlink" version="1.1" x="0px" y="0px" viewBox="0 0 512 640" enable-background="new 0 0 512 512" xml:space="preserve"><path d="M425.937,210.082c-3.68-13.655-9.026-26.86-15.891-39.249c-1.729-3.121-1.183-7.011,1.341-9.534L444.686,128L384,67.313  l-33.299,33.3c-2.523,2.523-6.412,3.069-9.534,1.341c-12.388-6.865-25.593-12.211-39.249-15.892  c-3.492-0.941-5.918-4.108-5.918-7.725V32h-80v46.338c0,3.616-2.426,6.783-5.918,7.725c-13.656,3.681-26.861,9.026-39.249,15.892  c-3.121,1.728-7.011,1.182-9.534-1.341L128,67.313L67.313,128l33.299,33.299c2.523,2.523,3.07,6.413,1.341,9.535  c-6.864,12.386-12.21,25.591-15.892,39.248c-0.941,3.492-4.108,5.918-7.724,5.918H32v80h46.338c3.616,0,6.783,2.426,7.724,5.918  c3.681,13.657,9.028,26.862,15.892,39.248c1.729,3.122,1.183,7.012-1.341,9.535L67.313,384L128,444.686l33.299-33.3  c2.523-2.522,6.413-3.067,9.534-1.341c12.388,6.865,25.593,12.211,39.249,15.892c3.492,0.941,5.918,4.108,5.918,7.725V480h80  v-46.338c0-3.616,2.426-6.783,5.918-7.725c13.656-3.681,26.861-9.026,39.249-15.892c3.121-1.728,7.011-1.183,9.534,1.341  l33.299,33.3L444.686,384l-33.299-33.299c-2.523-2.523-3.07-6.413-1.341-9.534c6.864-12.389,12.211-25.594,15.891-39.249  c0.941-3.491,4.108-5.918,7.725-5.918H480v-80h-46.338C430.045,216,426.878,213.573,425.937,210.082z M256,400  c-79.402,0-144-64.598-144-144s64.598-144,144-144s144,64.598,144,144S335.402,400,256,400z"/><path d="M256,288c-39.137,0-75.27,18.769-97.801,50.477C181.698,366.297,216.818,384,256,384s74.302-17.703,97.801-45.523  C331.27,306.769,295.137,288,256,288z"/><circle cx="256" cy="216" r="56"/><path d="M256,128c-70.58,0-128,57.421-128,128c0,25.4,7.438,49.095,20.248,69.024c17.862-23.234,42.395-39.803,70.023-47.733  C197.725,264.597,184,241.875,184,216c0-39.701,32.299-72,72-72s72,32.299,72,72c0,25.875-13.725,48.597-34.271,61.291  c27.629,7.93,52.162,24.499,70.023,47.733C376.562,305.095,384,281.4,384,256C384,185.421,326.58,128,256,128z"/><text x="0" y="527" fill="#000000" font-size="5px" font-weight="bold" font-family="'Helvetica Neue', Helvetica, Arial-Unicode, Arial, Sans-serif">Created by iconixar</text><text x="0" y="532" fill="#000000" font-size="5px" font-weight="bold" font-family="'Helvetica Neue', Helvetica, Arial-Unicode, Arial, Sans-serif">from the Noun Project</text></svg>