<svg xmlns="http://www.w3.org/2000/svg" version="1.1" viewBox="-5.0 -10.0 110.0 135.0">
 <path d="m85.113 20.75h-16.957l4.1406-4.1406v0.44922c0 1.0703 0.86719 1.9336 1.9336 1.9336 1.0664 0 1.9336-0.86719 1.9336-1.9336v-5.1211c0-1.0703-0.86719-1.9336-1.9336-1.9336h-5.125c-1.0703 0-1.9336 0.86719-1.9336 1.9336s0.86719 1.9336 1.9336 1.9336h0.45312l-6.8789 6.8789h-14.066l-3.0703-2.7617c-0.73828-0.66406-1.8555-0.66016-2.5938 0.003907l-3.0508 2.7617-25.012-0.003906c-2.6914 0-4.8828 2.1914-4.8828 4.8828v45.91c0 2.6914 2.1914 4.8789 4.8828 4.8789h26.102c-0.53906 4.1875-2.832 6.9531-5.6094 9.7031h-4.8086c-1.0703 0-1.9336 0.86719-1.9336 1.9336s0.86719 1.9336 1.9336 1.9336h38.867c1.0703 0 1.9336-0.86719 1.9336-1.9336s-0.86719-1.9336-1.9336-1.9336h-4.8086c-2.7773-2.75-5.0703-5.5156-5.6094-9.7031h26.102c2.6914 0 4.8828-2.1875 4.8828-4.8789l-0.003906-45.91c0-2.6914-2.1914-4.8828-4.8828-4.8828zm-26.305 3.8711-2.7891 2.7891-3.1016-2.7891h5.8945zm-43.93 0h20.738l-11.152 10.09c-0.79297 0.71875-0.85547 1.9414-0.13672 2.7344 0.38281 0.42188 0.90625 0.63672 1.4375 0.63672 0.46484 0 0.92969-0.16406 1.2969-0.5l17.184-15.547 10.543 9.4844c0.76563 0.6875 1.9336 0.65625 2.6641-0.070312l6.8242-6.8242h20.828c0.55859 0 1.0117 0.45312 1.0117 1.0156v37.426l-72.246-0.007812v-37.426c0-0.55859 0.45312-1.0156 1.0117-1.0156zm44.445 61.508h-18.66c1.9609-2.3789 3.7773-5.4844 4.2109-9.7031h10.242c0.43359 4.2188 2.2461 7.3242 4.2109 9.7031zm25.785-13.574h-70.223c-0.55078 0-1.0117-0.46094-1.0117-1.0078v-4.6172h72.258v4.6172c0 0.54688-0.46484 1.0078-1.0117 1.0078zm-62.812-13.762h55.391c1.0703 0 1.9336-0.86719 1.9336-1.9336s-0.86719-1.9336-1.9336-1.9336h-1.5234v-24.871c0-1.0703-0.86719-1.9336-1.9336-1.9336h-7.9922c-1.0703 0-1.9336 0.86719-1.9336 1.9336v24.871h-1.6289v-13.508c0-1.0703-0.86719-1.9336-1.9336-1.9336h-7.9922c-1.0703 0-1.9336 0.86719-1.9336 1.9336v13.508h-1.6289v-19.414c0-1.0703-0.86719-1.9336-1.9336-1.9336h-7.9922c-1.0703 0-1.9336 0.86719-1.9336 1.9336v19.414h-1.6289v-9.7734c0-1.0703-0.86719-1.9336-1.9336-1.9336h-7.9883c-1.0703 0-1.9336 0.86719-1.9336 1.9336v9.7734h-1.5312c-1.0703 0-1.9336 0.86719-1.9336 1.9336s0.86719 1.9336 1.9336 1.9336zm45.871-26.805h4.1211v22.934h-4.1211zm-13.492 11.359h4.1211v11.574h-4.1211zm-13.492-5.9062h4.1211v17.48h-4.1211zm-13.488 9.6406h4.1172v7.8398h-4.1172z"/>
<text x="0.0" y="117.5" font-size="5.0" font-weight="bold" font-family="Arbeit Regular, Helvetica, Arial-Unicode, Arial, Sans-serif" fill="#000000">Created by Putri Amaliya</text><text x="0.0" y="122.5" font-size="5.0" font-weight="bold" font-family="Arbeit Regular, Helvetica, Arial-Unicode, Arial, Sans-serif" fill="#000000">from Noun Project</text></svg>