<svg xmlns="http://www.w3.org/2000/svg" xmlns:xlink="http://www.w3.org/1999/xlink" xmlns:serif="http://www.serif.com/" viewBox="0 0 24 30" version="1.1" xml:space="preserve" style="" x="0px" y="0px" fill-rule="evenodd" clip-rule="evenodd" stroke-linejoin="round" stroke-miterlimit="2"><g><g><path d="M15.743,11.493l5.5,-3.056c0.159,-0.088 0.257,-0.255 0.257,-0.437c0,-0.182 -0.098,-0.349 -0.257,-0.437l-9,-5c-0.151,-0.084 -0.335,-0.084 -0.486,-0l-3,1.667c-0.241,0.134 -0.328,0.438 -0.194,0.679c0.134,0.242 0.439,0.329 0.68,0.195l2.757,-1.532c-0,-0 7.97,4.428 7.97,4.428c0,-0 -4.713,2.618 -4.713,2.618c-0.241,0.134 -0.328,0.439 -0.194,0.68c0.134,0.242 0.439,0.329 0.68,0.195Z"/><path d="M5.971,5.777l-3.214,1.786c-0.159,0.088 -0.257,0.255 -0.257,0.437c-0,0.182 0.098,0.349 0.257,0.437l9,5c0.151,0.084 0.335,0.084 0.486,0l0.643,-0.357c0.241,-0.134 0.328,-0.439 0.194,-0.68c-0.134,-0.241 -0.439,-0.328 -0.68,-0.194l-0.4,0.222c0,0 -7.97,-4.428 -7.97,-4.428c-0,-0 2.427,-1.349 2.427,-1.349c0.241,-0.134 0.328,-0.438 0.194,-0.68c-0.134,-0.241 -0.438,-0.328 -0.68,-0.194Z"/><path d="M2.757,12.437l9,5c0.151,0.084 0.335,0.084 0.486,0l3.214,-1.786c0.241,-0.134 0.328,-0.438 0.194,-0.68c-0.134,-0.241 -0.438,-0.328 -0.68,-0.194l-2.971,1.651c0,0 -8.757,-4.865 -8.757,-4.865c-0.241,-0.134 -0.546,-0.047 -0.68,0.194c-0.134,0.241 -0.047,0.546 0.194,0.68Z"/><path d="M18.243,14.104l3,-1.667c0.241,-0.134 0.328,-0.439 0.194,-0.68c-0.134,-0.241 -0.439,-0.328 -0.68,-0.194l-3,1.667c-0.241,0.134 -0.328,0.438 -0.194,0.679c0.134,0.242 0.439,0.329 0.68,0.195Z"/><path d="M2.757,16.437l9,5c0.151,0.084 0.335,0.084 0.486,0l5.786,-3.214c0.241,-0.134 0.328,-0.439 0.194,-0.68c-0.134,-0.241 -0.439,-0.328 -0.68,-0.194l-5.543,3.079c0,0 -8.757,-4.865 -8.757,-4.865c-0.241,-0.134 -0.546,-0.047 -0.68,0.194c-0.134,0.241 -0.047,0.546 0.194,0.68Z"/><path d="M20.243,16.993l1,-0.556c0.241,-0.134 0.328,-0.439 0.194,-0.68c-0.134,-0.241 -0.439,-0.328 -0.68,-0.194l-1,0.555c-0.241,0.134 -0.328,0.439 -0.194,0.68c0.134,0.242 0.439,0.329 0.68,0.195Z"/><path d="M2.646,3.354l18,18c0.196,0.195 0.512,0.195 0.708,-0c0.195,-0.196 0.195,-0.512 -0,-0.708l-18,-18c-0.196,-0.195 -0.512,-0.195 -0.708,0c-0.195,0.196 -0.195,0.512 0,0.708Z"/></g></g><text x="0" y="39" fill="#000000" font-size="5px" font-weight="bold" font-family="'Helvetica Neue', Helvetica, Arial-Unicode, Arial, Sans-serif">Created by Rolas Design</text><text x="0" y="44" fill="#000000" font-size="5px" font-weight="bold" font-family="'Helvetica Neue', Helvetica, Arial-Unicode, Arial, Sans-serif">from the Noun Project</text></svg>