<svg xmlns="http://www.w3.org/2000/svg" xmlns:xlink="http://www.w3.org/1999/xlink" xmlns:serif="http://www.serif.com/" viewBox="0 0 24 30" version="1.1" xml:space="preserve" style="" x="0px" y="0px" fill-rule="evenodd" clip-rule="evenodd" stroke-linejoin="round" stroke-miterlimit="2"><g><g><path d="M16.937,19.412l-1.471,-1.471l-3.466,1.925c0,0 -8.514,-4.73 -8.514,-4.73c-0.483,-0.268 -1.092,-0.094 -1.36,0.388c-0.268,0.483 -0.094,1.092 0.388,1.36l9,5c0.302,0.168 0.67,0.168 0.972,0l4.451,-2.472Zm1.711,-3.239l1.471,1.471l1.367,-0.76c0.482,-0.268 0.656,-0.877 0.388,-1.36c-0.268,-0.482 -0.877,-0.656 -1.36,-0.388l-1.866,1.037Z"/><path d="M2.293,3.707l18,18c0.39,0.39 1.024,0.39 1.414,0c0.39,-0.39 0.39,-1.024 0,-1.414l-18,-18c-0.39,-0.39 -1.024,-0.39 -1.414,-0c-0.39,0.39 -0.39,1.024 -0,1.414Z"/><path d="M14.365,16.84l-1.471,-1.471l-0.894,0.497c0,0 -8.514,-4.73 -8.514,-4.73c-0.483,-0.268 -1.092,-0.094 -1.36,0.388c-0.268,0.483 -0.094,1.092 0.388,1.36l9,5c0.302,0.168 0.67,0.168 0.972,0l1.879,-1.044Zm1.711,-3.238l1.471,1.47l3.939,-2.188c0.482,-0.268 0.656,-0.877 0.388,-1.36c-0.268,-0.482 -0.877,-0.656 -1.36,-0.388l-4.438,2.466Z"/><path d="M3.894,6.369l-1.38,0.767c-0.317,0.176 -0.514,0.511 -0.514,0.874c0,0.363 0.197,0.698 0.514,0.874l8.764,4.869l-7.384,-7.384Zm3.182,-1.767l7.9,7.899l6.51,-3.617c0.317,-0.176 0.514,-0.511 0.514,-0.874c0,-0.363 -0.197,-0.698 -0.514,-0.874l-9,-5c-0.302,-0.168 -0.67,-0.168 -0.972,-0l-4.438,2.466Z"/></g></g><text x="0" y="39" fill="#000000" font-size="5px" font-weight="bold" font-family="'Helvetica Neue', Helvetica, Arial-Unicode, Arial, Sans-serif">Created by Rolas Design</text><text x="0" y="44" fill="#000000" font-size="5px" font-weight="bold" font-family="'Helvetica Neue', Helvetica, Arial-Unicode, Arial, Sans-serif">from the Noun Project</text></svg>