<svg width="20" height="20" viewBox="0 0 20 20" fill="none" xmlns="http://www.w3.org/2000/svg">
<path d="M12.5 14.1667H16.6667L15.4959 12.9959C15.1784 12.6784 15 12.2477 15 11.7987V9.16667C15 6.98964 13.6087 5.13757 11.6667 4.45118V4.16667C11.6667 3.24619 10.9205 2.5 10 2.5C9.07953 2.5 8.33334 3.24619 8.33334 4.16667V4.45118C6.39135 5.13757 5 6.98964 5 9.16667V11.7987C5 12.2477 4.82163 12.6784 4.50411 12.9959L3.33334 14.1667H7.5M12.5 14.1667V15C12.5 16.3807 11.3807 17.5 10 17.5C8.61929 17.5 7.5 16.3807 7.5 15V14.1667M12.5 14.1667H7.5" stroke="black" stroke-width="1.7" stroke-linecap="round" stroke-linejoin="round"/>
</svg>
