<svg xmlns="http://www.w3.org/2000/svg" data-name="Layer 1" viewBox="0 0 95 118.75" x="0px" y="0px"><defs><style>.cls-1{fill-rule:evenodd;}</style></defs><title>a</title><path class="cls-1" d="M28.719,5.248a2.125,2.125,0,0,1,2.124-2.119H74.754a2.125,2.125,0,0,1,2.124,2.119V73.135H66.1a6.528,6.528,0,0,0-1.644-4.963L42.971,44.236a1.109,1.109,0,0,0-.822-.367l-13.43-.049V5.248ZM91.192,89.607a11.67,11.67,0,0,0,1.3-5.7c0-4.148-1.687-8.558-4.809-8.558H65.643a15.316,15.316,0,0,1-4.381,6.371c-3.9,3.47-9.722,5.372-13.316,1.344L33.86,67.258a1.107,1.107,0,1,1,1.652-1.474L49.6,81.591c2.6,2.909,6.987,1.328,10.187-1.525,3.41-3.037,5.534-7.591,3.016-10.419L41.651,46.08,2.506,45.937l.183,26.515H9.011a1.112,1.112,0,0,1,.778.324l19.157,19.1H87.685a3.951,3.951,0,0,0,3.507-2.264ZM39.91,20.384a12.517,12.517,0,1,0,25.033,0V13.608h1.242a1.107,1.107,0,1,0,0-2.213H62.408a1.107,1.107,0,0,0,0,2.213h.323v6.776a10.3,10.3,0,1,1-20.608,0V13.608H42.9a1.107,1.107,0,1,0,0-2.213H39.123a1.107,1.107,0,0,0,0,2.213h.787Z"/><text x="0" y="110" fill="#000000" font-size="5px" font-weight="bold" font-family="'Helvetica Neue', Helvetica, Arial-Unicode, Arial, Sans-serif">Created by sulistiyono1986</text><text x="0" y="115" fill="#000000" font-size="5px" font-weight="bold" font-family="'Helvetica Neue', Helvetica, Arial-Unicode, Arial, Sans-serif">from the Noun Project</text></svg>