<svg xmlns="http://www.w3.org/2000/svg" data-name="Layer 1" viewBox="0 0 95 118.75" x="0px" y="0px"><defs><style>.cls-1{fill-rule:evenodd;}</style></defs><title>a</title><path class="cls-1" d="M40.271,21.655V15.2H39.52a1.055,1.055,0,0,1,0-2.11h3.6a1.055,1.055,0,1,1,0,2.11h-.741v6.458a9.822,9.822,0,1,0,19.643,0V15.2h-.309a1.055,1.055,0,0,1,0-2.11h3.6a1.055,1.055,0,1,1,0,2.11H64.13v6.458a11.93,11.93,0,1,1-23.859,0ZM89.148,87.633a3.766,3.766,0,0,1-3.342,2.158H29.82l-18.259-18.2a1.061,1.061,0,0,0-.742-.308H4.794L4.619,46.011l37.31.136L62.088,68.609c2.4,2.7.375,7.036-2.875,9.931-3.05,2.719-7.234,4.226-9.709,1.453L36.079,64.927a1.056,1.056,0,1,0-1.576,1.4L47.929,81.4c3.425,3.839,8.975,2.027,12.692-1.281A14.608,14.608,0,0,0,64.8,74.043H85.806c2.975,0,4.584,4.2,4.584,8.156a11.121,11.121,0,0,1-1.242,5.434ZM29.6,7.229V43.993l12.8.046a1.06,1.06,0,0,1,.783.35L63.663,67.2a6.221,6.221,0,0,1,1.567,4.731H75.505V7.229a2.025,2.025,0,0,0-2.025-2.02H31.628A2.026,2.026,0,0,0,29.6,7.229Zm56.2,64.705H77.614V7.229A4.14,4.14,0,0,0,73.48,3.1H31.628A4.134,4.134,0,0,0,27.5,7.229V43.984L3.56,43.9H3.552A1.053,1.053,0,0,0,2.5,44.96l.183,27.385a1.065,1.065,0,0,0,1.059,1.048h6.642l18.251,18.2a1.052,1.052,0,0,0,.741.31H85.806a5.808,5.808,0,0,0,5.167-3.214A13.225,13.225,0,0,0,92.5,82.2C92.5,77.1,90.2,71.934,85.806,71.934Z"/><text x="0" y="110" fill="#000000" font-size="5px" font-weight="bold" font-family="'Helvetica Neue', Helvetica, Arial-Unicode, Arial, Sans-serif">Created by sulistiyono1986</text><text x="0" y="115" fill="#000000" font-size="5px" font-weight="bold" font-family="'Helvetica Neue', Helvetica, Arial-Unicode, Arial, Sans-serif">from the Noun Project</text></svg>