<svg width="20" height="20" viewBox="0 0 20 20" fill="none" xmlns="http://www.w3.org/2000/svg">
<g clip-path="url(#clip0_367_1173)">
<path fill-rule="evenodd" clip-rule="evenodd" d="M16.4566 8.48273C16.7617 8.17763 17.2563 8.17763 17.5614 8.48272L19.7712 10.6924C19.9177 10.8389 20 11.0376 20 11.2448C20 11.452 19.9177 11.6508 19.7712 11.7973L13.0188 18.5497C12.4735 19.095 11.7789 19.4667 11.0226 19.618L9.18833 19.9848C8.93219 20.0361 8.6674 19.9559 8.48269 19.7712C8.29798 19.5865 8.21781 19.3217 8.26904 19.0655L8.63591 17.2312C8.63591 17.2312 8.63591 17.2312 8.63591 17.2312C8.78714 16.475 9.15888 15.7804 9.70417 15.2352L16.4566 8.48273ZM17.009 10.14L10.809 16.34C10.4818 16.6672 10.2588 17.0839 10.1681 17.5376L10.031 18.2228L10.7162 18.0858C11.17 17.9951 11.5867 17.772 11.9139 17.4448L18.1139 11.2448L17.009 10.14Z" fill="black"/>
<path fill-rule="evenodd" clip-rule="evenodd" d="M14.8438 4.6875C15.2752 4.6875 15.625 5.03728 15.625 5.46875V6.78137C15.625 7.21284 15.2752 7.56262 14.8438 7.56262C14.4123 7.56262 14.0625 7.21284 14.0625 6.78137V5.46875C14.0625 5.03728 14.4123 4.6875 14.8438 4.6875Z" fill="black"/>
<path fill-rule="evenodd" clip-rule="evenodd" d="M0 2.34375C0 1.04935 1.04935 0 2.34375 0L10.1562 0C10.5877 0 10.9375 0.349778 10.9375 0.78125C10.9375 1.21272 10.5877 1.5625 10.1562 1.5625L2.34375 1.5625C1.91229 1.5625 1.5625 1.91229 1.5625 2.34375L1.5625 17.6562C1.5625 18.0877 1.91229 18.4375 2.34375 18.4375H5.84875C6.28022 18.4375 6.63 18.7873 6.63 19.2188C6.63 19.6502 6.28022 20 5.84875 20H2.34375C1.04935 20 0 18.9507 0 17.6562L0 2.34375Z" fill="black"/>
<path fill-rule="evenodd" clip-rule="evenodd" d="M9.85728 0.0594919C10.1492 -0.0614307 10.4852 0.00540974 10.7087 0.228846L15.3962 4.91635C15.6196 5.13978 15.6865 5.47581 15.5655 5.76774C15.4446 6.05968 15.1597 6.25002 14.8438 6.25002L11.7188 6.25002C10.4243 6.25002 9.375 5.20068 9.375 3.90627V0.781273C9.375 0.465287 9.56535 0.180415 9.85728 0.0594919ZM10.9375 2.66738V3.90627C10.9375 4.33773 11.2873 4.68752 11.7188 4.68752L12.9576 4.68752L10.9375 2.66738Z" fill="black"/>
<path fill-rule="evenodd" clip-rule="evenodd" d="M3.125 8.28125C3.125 7.84978 3.47478 7.5 3.90625 7.5L11.7188 7.5C12.1502 7.5 12.5 7.84978 12.5 8.28125C12.5 8.71272 12.1502 9.0625 11.7188 9.0625L3.90625 9.0625C3.47478 9.0625 3.125 8.71272 3.125 8.28125Z" fill="black"/>
<path fill-rule="evenodd" clip-rule="evenodd" d="M3.125 11.4062C3.125 10.9748 3.47478 10.625 3.90625 10.625L10.2188 10.625C10.6503 10.625 11.0001 10.9748 11.0001 11.4062C11.0001 11.8377 10.6503 12.1875 10.2188 12.1875L3.90625 12.1875C3.47478 12.1875 3.125 11.8377 3.125 11.4062Z" fill="black"/>
<path fill-rule="evenodd" clip-rule="evenodd" d="M3.125 14.5312C3.125 14.0998 3.47478 13.75 3.90625 13.75H7.26449C7.69596 13.75 8.04574 14.0998 8.04574 14.5312C8.04574 14.9627 7.69596 15.3125 7.26449 15.3125H3.90625C3.47478 15.3125 3.125 14.9627 3.125 14.5312Z" fill="black"/>
</g>
<defs>
<clipPath id="clip0_367_1173">
<rect width="20" height="20" fill="white"/>
</clipPath>
</defs>
</svg>
