<svg width="20" height="20" viewBox="0 0 20 20" fill="none" xmlns="http://www.w3.org/2000/svg">
<path fill-rule="evenodd" clip-rule="evenodd" d="M10.8333 6.66667C10.3731 6.66667 10 6.29357 10 5.83333C10 5.3731 10.3731 5 10.8333 5L17.5 5C17.9602 5 18.3333 5.3731 18.3333 5.83333V12.5C18.3333 12.9602 17.9602 13.3333 17.5 13.3333C17.0398 13.3333 16.6667 12.9602 16.6667 12.5V7.84518L11.4226 13.0893C11.0971 13.4147 10.5695 13.4147 10.2441 13.0893L7.5 10.3452L3.08925 14.7559C2.76382 15.0814 2.23618 15.0814 1.91074 14.7559C1.5853 14.4305 1.5853 13.9028 1.91074 13.5774L6.91074 8.57741C7.23618 8.25197 7.76382 8.25197 8.08925 8.57741L10.8333 11.3215L15.4882 6.66667H10.8333Z" fill="black"/>
</svg>
