<svg xmlns="http://www.w3.org/2000/svg" xmlns:xlink="http://www.w3.org/1999/xlink" version="1.1" x="0px" y="0px" viewBox="0 0 512 640" enable-background="new 0 0 512 512" xml:space="preserve"><path d="M384,256c0,70.579-57.421,128-128,128c-2.779,0-5.574-0.099-8.363-0.279l-4.213,15.724C247.57,399.805,251.762,400,256,400  c79.402,0,144-64.598,144-144c0-4.238-0.195-8.43-0.555-12.576l-15.724,4.213C383.901,250.426,384,253.221,384,256z"/><path d="M256,144c-21.346,0-41.753,5.898-59.556,17.131l41.779,41.779C243.813,201.033,249.786,200,256,200  c16.664,0,31.642,7.325,41.909,18.914l57.101-15.299C335.708,167.12,297.798,144,256,144z"/><path d="M296,256c0-22.056-17.944-40-40-40c-22.056,0-40,17.944-40,40s17.944,40,40,40C278.056,296,296,278.056,296,256z M256,280  c-13.234,0-24-10.767-24-24s10.766-24,24-24c13.234,0,24,10.767,24,24S269.234,280,256,280z"/><path d="M233.028,307.051l-22.895,85.457c5.633,1.898,11.422,3.454,17.34,4.648l22.893-85.44  C244.242,311.102,238.413,309.484,233.028,307.051z"/><path d="M128,256c0-25.618,7.453-50.048,21.581-71.105l-11.479-11.479C121.664,196.814,112,225.298,112,256  c0,57.678,34.091,107.535,83.177,130.504l4.206-15.7C155.803,349.313,128,304.997,128,256z"/><path d="M200,256c0-6.214,1.033-12.187,2.909-17.777l-41.779-41.778C149.898,214.248,144,234.655,144,256  c0,41.798,23.12,79.708,59.615,99.01l15.298-57.101C207.324,287.642,200,272.664,200,256z"/><path d="M445.542,225.27c-4.604-28.63-15.91-56.304-32.695-80.028c-2.25-3.181-1.881-7.521,0.874-10.277L436.686,112L400,75.313  l-22.965,22.966c-2.756,2.754-7.096,3.124-10.277,0.874c-23.724-16.784-51.396-28.09-80.028-32.694  c-3.878-0.624-6.729-3.971-6.729-7.898V32h-48v26.561c0,3.928-2.852,7.274-6.73,7.898c-28.632,4.605-56.305,15.91-80.028,32.694  c-3.182,2.249-7.522,1.88-10.277-0.874L112,75.313L75.313,112l22.965,22.965c2.756,2.756,3.125,7.097,0.874,10.277  c-16.784,23.725-28.089,51.397-32.694,80.028c-0.624,3.878-3.971,6.73-7.898,6.73H32v48h26.56c3.928,0,7.275,2.852,7.898,6.729  c4.605,28.631,15.91,56.304,32.694,80.028c2.251,3.181,1.882,7.521-0.874,10.277L75.313,400L112,436.686l22.965-22.966  c2.755-2.756,7.095-3.124,10.277-0.874c23.723,16.784,51.396,28.089,80.028,32.694c3.878,0.624,6.73,3.971,6.73,7.899V480h48v-26.56  c0-3.928,2.852-7.275,6.729-7.899c28.632-4.604,56.305-15.91,80.028-32.694c3.183-2.249,7.523-1.88,10.277,0.874L400,436.686  L436.686,400l-22.966-22.965c-2.755-2.756-3.124-7.097-0.874-10.277c16.785-23.725,28.091-51.398,32.695-80.028  c0.624-3.878,3.971-6.729,7.898-6.729H480v-48h-26.56C449.513,232,446.166,229.148,445.542,225.27z M256,416  c-88.224,0-160-71.775-160-160S167.776,96,256,96c88.225,0,160,71.775,160,160S344.225,416,256,416z"/><circle cx="256" cy="256" r="8"/><path d="M256,112c-30.702,0-59.187,9.665-82.584,26.102l11.479,11.479C205.951,135.454,230.382,128,256,128  c48.998,0,93.315,27.803,114.804,71.383l15.7-4.206C363.535,146.091,313.678,112,256,112z"/><path d="M223.281,210.595l-62.511-62.51c-4.486,3.963-8.723,8.2-12.686,12.686l62.511,62.511  C214.119,218.405,218.405,214.119,223.281,210.595z"/><path d="M368,256c0-1.373-0.034-2.75-0.084-4.128l-57.034,15.282c-4.454,21.947-21.78,39.274-43.727,43.727l-15.282,57.035  c1.378,0.05,2.755,0.084,4.128,0.084C317.757,368,368,317.757,368,256z"/><path d="M311.717,250.366l85.44-22.893c-1.194-5.918-2.75-11.707-4.648-17.34l-85.457,22.896  C309.484,238.414,311.102,244.242,311.717,250.366z"/><text x="0" y="527" fill="#000000" font-size="5px" font-weight="bold" font-family="'Helvetica Neue', Helvetica, Arial-Unicode, Arial, Sans-serif">Created by iconixar</text><text x="0" y="532" fill="#000000" font-size="5px" font-weight="bold" font-family="'Helvetica Neue', Helvetica, Arial-Unicode, Arial, Sans-serif">from the Noun Project</text></svg>