<svg xmlns="http://www.w3.org/2000/svg" xmlns:xlink="http://www.w3.org/1999/xlink" xmlns:xodm="http://www.corel.com/coreldraw/odm/2003" xml:space="preserve" version="1.1" style="shape-rendering:geometricPrecision;text-rendering:geometricPrecision;image-rendering:optimizeQuality;" viewBox="0 0 8.4666 10.58325" x="0px" y="0px" fill-rule="evenodd" clip-rule="evenodd"><defs><style type="text/css">
   
    .fil0 {fill:black;fill-rule:nonzero}
   
  </style></defs><g><path class="fil0" d="M1.5849 2.2256l0.9237 0c0.0347,-0.8391 0.4599,-1.3892 1.0003,-1.6425 0.2231,-0.1044 0.4662,-0.158 0.7094,-0.1597 0.2431,-0.0018 0.4868,0.0479 0.7112,0.1493 0.5455,0.2468 0.9801,0.7965 1.0266,1.6528l0.9258 0c0.0714,0 0.1301,0.0544 0.1371,0.1239l0.9334 5.5336c0.0124,0.0748 -0.0381,0.1458 -0.1129,0.1581l-0.0226 0.0019 -7.167 0.0003c-0.076,0 -0.1377,-0.0617 -0.1377,-0.1377 0,-0.0111 0.0013,-0.0218 0.0038,-0.0321l0.9334 -5.5328c0.011,-0.0673 0.0695,-0.1149 0.1355,-0.1151zm4.101 0.9223c-0.0047,0.8102 -0.3852,1.3213 -0.8694,1.5403 -0.1888,0.0854 -0.3934,0.1272 -0.5971,0.1257 -0.2035,-0.0014 -0.4072,-0.0463 -0.5942,-0.1339 -0.4801,-0.2249 -0.8521,-0.7366 -0.8445,-1.5305 0.0006,-0.0757 -0.0604,-0.1377 -0.1361,-0.1382 -0.0757,-0.0006 -0.1377,0.0604 -0.1382,0.1361 -0.0088,0.9175 0.4329,1.5142 1.0025,1.7811 0.2231,0.1045 0.4662,0.158 0.7094,0.1598 0.2431,0.0018 0.4868,-0.048 0.7112,-0.1494 0.5741,-0.2597 1.0253,-0.8549 1.0307,-1.7899 0.0003,-0.0757 -0.0609,-0.1375 -0.1366,-0.1377 -0.0757,-0.0002 -0.1375,0.0609 -0.1377,0.1366zm-2.9027 -0.9223l2.898 -0.0001c-0.0447,-0.7304 -0.4087,-1.1957 -0.8647,-1.402 -0.1888,-0.0854 -0.3934,-0.1273 -0.5971,-0.1257 -0.2035,0.0014 -0.4072,0.0463 -0.5942,0.1339 -0.452,0.2118 -0.8082,0.6776 -0.842,1.3939zm2.7804 5.1243l1.4296 -0.0034c0.0757,0 0.1371,-0.0615 0.1371,-0.1372 0,-0.0757 -0.0614,-0.1372 -0.1371,-0.1372l-1.4296 0.0035c-0.0757,0 -0.1372,0.0615 -0.1372,0.1371 0,0.0757 0.0615,0.1372 0.1372,0.1372z"/></g><text x="0" y="23.4666" fill="#000000" font-size="5px" font-weight="bold" font-family="'Helvetica Neue', Helvetica, Arial-Unicode, Arial, Sans-serif">Created by Suminah Wulandari</text><text x="0" y="28.4666" fill="#000000" font-size="5px" font-weight="bold" font-family="'Helvetica Neue', Helvetica, Arial-Unicode, Arial, Sans-serif">from the Noun Project</text></svg>