<svg xmlns="http://www.w3.org/2000/svg" xmlns:xlink="http://www.w3.org/1999/xlink" version="1.1" x="0px" y="0px" viewBox="0 0 27.001 28.75" style="enable-background:new 0 0 27.001 23;" xml:space="preserve"><g><path d="M26.388,10.084c-0.032-0.618-0.495-0.973-1.083-1.051V7.862c0-2.24-1.76-4.063-4-4.063s-4,1.822-4,4.063V9h0.049   c-0.698,0-1.274,0.385-1.312,1.084l-0.611,11.731c-0.019,0.36,0.111,0.613,0.359,0.874S16.382,23,16.741,23h1.184h7.763   c0.36,0,0.704-0.09,0.952-0.352c0.248-0.26,0.378-0.502,0.359-0.861L26.388,10.084z M23.305,9h-4V7.862   c0-1.138,0.862-2.063,2-2.063s2,0.925,2,2.063V9z"/><path d="M15.043,9.839c0.052-0.978,0.707-1.748,1.59-2.039c0.022-1.82,1.016-3.397,2.48-4.271L19.04,2.046   C18.981,0.935,18.063,0,16.951,0H3.065c-1.112,0-2.03,0.935-2.088,2.046l-0.975,18.84c-0.029,0.572,0.178,1.091,0.572,1.505   C0.97,22.807,1.519,23,2.091,23H14.85c-0.289,0-0.444-0.863-0.418-1.375L15.043,9.839z M10.015,9.751   c-2.999,0-5.513-2.027-6.229-4.816c-0.563-0.221-0.964-0.77-0.964-1.41c0-0.836,0.678-1.513,1.514-1.513s1.513,0.677,1.513,1.513   c0,0.479-0.223,0.904-0.569,1.182c0.6,2.063,2.49,3.546,4.736,3.546c2.244,0,4.133-1.479,4.734-3.537   c-0.353-0.276-0.58-0.707-0.58-1.19c0-0.836,0.678-1.513,1.514-1.513c0.834,0,1.512,0.677,1.512,1.513   c0,0.636-0.393,1.18-0.947,1.403C15.532,7.72,13.017,9.751,10.015,9.751z"/></g><text x="0" y="38" fill="#000000" font-size="5px" font-weight="bold" font-family="'Helvetica Neue', Helvetica, Arial-Unicode, Arial, Sans-serif">Created by Yo! Baba</text><text x="0" y="43" fill="#000000" font-size="5px" font-weight="bold" font-family="'Helvetica Neue', Helvetica, Arial-Unicode, Arial, Sans-serif">from the Noun Project</text></svg>