<svg xmlns="http://www.w3.org/2000/svg" data-name="Layer 1" viewBox="0 0 95 118.75" x="0px" y="0px"><defs><style>.cls-1{fill-rule:evenodd;}</style></defs><title>a</title><path class="cls-1" d="M11.621,88.8,21.636,32.865a3.1,3.1,0,0,1,3.094-2.589h5.037V34.15a5.451,5.451,0,1,0,2.9,0V30.276H62.33V34.15a5.453,5.453,0,1,0,2.9,0V30.276H70.27a3.1,3.1,0,0,1,3.094,2.589L83.379,88.8a3.148,3.148,0,0,1-3.095,3.7H14.717a3.146,3.146,0,0,1-3.1-3.7Zm19.6-47.948A1.45,1.45,0,0,1,29.767,39.4v-2.09a2.545,2.545,0,1,0,2.9,0V39.4a1.45,1.45,0,0,1-1.452,1.451Zm32.563,0A1.45,1.45,0,0,1,62.33,39.4v-2.09a2.547,2.547,0,1,0,2.9,0V39.4a1.45,1.45,0,0,1-1.452,1.451ZM20.291,88.142h25.6a1.452,1.452,0,0,0,1.452-1.451V81.008a1.452,1.452,0,0,0-1.452-1.452h-25.6a1.453,1.453,0,0,0-1.452,1.452v5.683a1.454,1.454,0,0,0,1.452,1.451Zm1.452-5.683V85.24H44.435V82.459ZM32.67,27.372V20.233a14.83,14.83,0,0,1,29.66,0v7.139h2.9V20.233a17.733,17.733,0,0,0-35.466,0v7.2q1.445-.014,2.9-.023Z"/><text x="0" y="110" fill="#000000" font-size="5px" font-weight="bold" font-family="'Helvetica Neue', Helvetica, Arial-Unicode, Arial, Sans-serif">Created by lakonicon</text><text x="0" y="115" fill="#000000" font-size="5px" font-weight="bold" font-family="'Helvetica Neue', Helvetica, Arial-Unicode, Arial, Sans-serif">from the Noun Project</text></svg>