<svg xmlns="http://www.w3.org/2000/svg" xmlns:xlink="http://www.w3.org/1999/xlink" xmlns:xodm="http://www.corel.com/coreldraw/odm/2003" xml:space="preserve" version="1.1" style="shape-rendering:geometricPrecision;text-rendering:geometricPrecision;image-rendering:optimizeQuality;" viewBox="0 0 8.4666 10.58325" x="0px" y="0px" fill-rule="evenodd" clip-rule="evenodd"><defs><style type="text/css">
   
    .fil0 {fill:black;fill-rule:nonzero}
   
  </style></defs><g><path class="fil0" d="M1.791 2.3822l0.8518 0c0.032,-0.7738 0.4241,-1.2811 0.9224,-1.5146 0.2057,-0.0963 0.4299,-0.1457 0.6542,-0.1473 0.2241,-0.0017 0.4489,0.0442 0.6558,0.1377 0.503,0.2276 0.9038,0.7345 0.9467,1.5241l0.8537 0c0.0658,0 0.12,0.0502 0.1264,0.1143l0.8608 5.1028c0.0114,0.069 -0.0352,0.1344 -0.1042,0.1458l-0.0208 0.0017 -6.609 0.0003c-0.0701,0 -0.127,-0.0569 -0.127,-0.127 0,-0.0102 0.0012,-0.0201 0.0035,-0.0296l0.8607 -5.1021c0.0102,-0.062 0.0641,-0.1059 0.125,-0.1061zm3.7817 0.8505c0.0002,-0.0698 0.0572,-0.1262 0.127,-0.126 0.0698,0.0002 0.1262,0.0572 0.126,0.127 -0.005,0.8622 -0.4211,1.4111 -0.9505,1.6506 -0.2069,0.0935 -0.4317,0.1394 -0.6558,0.1377 -0.2243,-0.0016 -0.4485,-0.051 -0.6542,-0.1473 -0.5253,-0.2461 -0.9326,-0.7964 -0.9245,-1.6425 0.0005,-0.0698 0.0577,-0.126 0.1275,-0.1255 0.0698,0.0005 0.126,0.0577 0.1255,0.1275 -0.007,0.7321 0.336,1.2039 0.7787,1.4113 0.1725,0.0808 0.3603,0.1222 0.548,0.1235 0.1878,0.0014 0.3765,-0.0372 0.5506,-0.1159 0.4465,-0.202 0.7974,-0.6733 0.8017,-1.4204zm-2.6767 -0.8505l2.6724 -0.0001c-0.0412,-0.6735 -0.3769,-1.1026 -0.7974,-1.2929 -0.1741,-0.0787 -0.3628,-0.1173 -0.5506,-0.1159 -0.1877,0.0013 -0.3755,0.0427 -0.548,0.1235 -0.4168,0.1953 -0.7452,0.6249 -0.7764,1.2854zm2.5639 4.7254c-0.0698,0 -0.1265,-0.0567 -0.1265,-0.1265 0,-0.0698 0.0567,-0.1265 0.1265,-0.1265l1.3183 -0.0032c0.0698,0 0.1265,0.0567 0.1265,0.1265 0,0.0698 -0.0567,0.1265 -0.1265,0.1265l-1.3183 0.0032zm1.1086 -4.4715l-4.6704 0 -0.8194 4.8569 6.3092 0 -0.8194 -4.8569z"/></g><text x="0" y="23.4666" fill="#000000" font-size="5px" font-weight="bold" font-family="'Helvetica Neue', Helvetica, Arial-Unicode, Arial, Sans-serif">Created by Lula Sugiantoro</text><text x="0" y="28.4666" fill="#000000" font-size="5px" font-weight="bold" font-family="'Helvetica Neue', Helvetica, Arial-Unicode, Arial, Sans-serif">from the Noun Project</text></svg>