<svg xmlns="http://www.w3.org/2000/svg" data-name="Layer 1" viewBox="0 0 48 60" x="0px" y="0px"><defs><style>
      .cls-1 {
        stroke-width: 0px;
      }
    </style></defs><path class="cls-1" d="m12,23c-2.206,0-4,1.794-4,4v13c0,2.206,1.794,4,4,4s4-1.794,4-4v-13c0-2.206-1.794-4-4-4Z"/><path class="cls-1" d="m24,16c-2.206,0-4,1.794-4,4v20c0,2.206,1.794,4,4,4s4-1.794,4-4v-20c0-2.206-1.794-4-4-4Z"/><path class="cls-1" d="m36,4c-2.206,0-4,1.794-4,4v32c0,2.206,1.794,4,4,4s4-1.794,4-4V8c0-2.206-1.794-4-4-4Z"/><text x="0" y="63" fill="#000000" font-size="5px" font-weight="bold" font-family="'Helvetica Neue', Helvetica, Arial-Unicode, Arial, Sans-serif">Created by kumakamu</text><text x="0" y="68" fill="#000000" font-size="5px" font-weight="bold" font-family="'Helvetica Neue', Helvetica, Arial-Unicode, Arial, Sans-serif">from the Noun Project</text></svg>