<svg width="24" height="26" viewBox="0 0 24 26" fill="none" xmlns="http://www.w3.org/2000/svg">
<path d="M12.0161 3.58478C12.4781 3.12151 12.943 2.66062 13.4021 2.19399C14.0956 1.49023 14.7854 0.782169 15.4774 0.0764958C15.4991 0.0545032 15.5254 0.0377698 15.5687 0.00382479C15.843 0.276819 16.1187 0.544554 16.3869 0.818983C17.6689 2.13041 18.943 3.44996 20.2316 4.75469C21.7264 6.26835 22.8654 8.00194 23.4732 10.0716C25.413 16.6746 21.8021 23.205 15.8124 25.3354C14.6677 25.7423 13.4816 26.0279 12.2588 25.9978C11.4824 25.9787 10.7294 25.9499 9.92717 25.8035C4.90573 24.6527 1.7154 21.5383 0.334068 16.5116C0.00896537 15.3283 -0.0507857 14.1006 0.0357828 12.8843C0.245147 9.94684 1.32819 7.37132 3.34326 5.24187C5.00077 3.49155 6.7072 1.78809 8.39293 0.0635871C8.40846 0.0478099 8.43151 0.0396822 8.49926 0C8.78861 0.306939 9.08124 0.625831 9.38282 0.935161C10.2156 1.79048 11.0521 2.64197 11.8881 3.49442C11.915 3.52167 11.9493 3.54223 11.9799 3.56566C11.7465 3.82049 11.5202 4.08248 11.2789 4.32918C9.78697 5.85575 8.28848 7.37467 6.79941 8.90411C5.52488 10.2131 4.83186 11.7909 4.81869 13.6354C4.80128 15.9867 5.71496 17.9277 7.49667 19.4165C9.06101 20.7237 10.8775 21.2587 12.8926 21.01C14.4767 20.8145 15.8496 20.1313 16.9858 18.9963C18.6329 17.3512 19.381 15.3427 19.1561 13.0048C19.0032 11.4156 18.3332 10.0453 17.2224 8.90745C15.4883 7.1318 13.7517 5.35901 12.0166 3.58478H12.0161Z" fill="url(#paint0_linear_209_648)"/>
<path d="M16.335 14.3879C16.3147 14.964 16.0958 15.4921 15.833 15.9868C15.1611 17.2504 14.0837 17.9919 12.7237 18.2493C10.9494 18.5852 9.16379 17.6675 8.26109 16.1194C7.78737 15.3065 7.58913 14.4363 7.65835 13.5091C7.72898 12.5661 8.09439 11.7313 8.73999 11.0505C9.74675 9.98836 10.7794 8.95257 11.7975 7.90196C11.9435 7.75125 12.0602 7.74121 12.2114 7.89574C13.212 8.91956 14.2245 9.93143 15.2176 10.962C15.7751 11.5404 16.1335 12.237 16.2719 13.0417C16.335 13.5029 16.3745 13.9526 16.335 14.3879Z" fill="#39BFFF"/>
<defs>
<linearGradient id="paint0_linear_209_648" x1="12" y1="0" x2="12" y2="26" gradientUnits="userSpaceOnUse">
<stop stop-color="#0656C8"/>
<stop offset="1" stop-color="#008FFE"/>
</linearGradient>
</defs>
</svg>
