<svg width="20" height="20" viewBox="0 0 20 20" fill="none" xmlns="http://www.w3.org/2000/svg">
<path d="M14.1667 16.6667H18.3333V15C18.3333 13.6193 17.214 12.5 15.8333 12.5C15.037 12.5 14.3276 12.8724 13.8698 13.4525M14.1667 16.6667H5.83333M14.1667 16.6667V15C14.1667 14.4532 14.0613 13.9309 13.8698 13.4525M5.83333 16.6667H1.66666V15C1.66666 13.6193 2.78595 12.5 4.16666 12.5C4.963 12.5 5.67238 12.8724 6.1302 13.4525M5.83333 16.6667V15C5.83333 14.4532 5.93868 13.9309 6.1302 13.4525M6.1302 13.4525C6.74458 11.9176 8.24568 10.8334 10 10.8334C11.7543 10.8334 13.2554 11.9176 13.8698 13.4525M12.5 5.83337C12.5 7.21409 11.3807 8.33337 10 8.33337C8.61929 8.33337 7.5 7.21409 7.5 5.83337C7.5 4.45266 8.61929 3.33337 10 3.33337C11.3807 3.33337 12.5 4.45266 12.5 5.83337ZM17.5 8.33337C17.5 9.25385 16.7538 10 15.8333 10C14.9129 10 14.1667 9.25385 14.1667 8.33337C14.1667 7.4129 14.9129 6.66671 15.8333 6.66671C16.7538 6.66671 17.5 7.4129 17.5 8.33337ZM5.83333 8.33337C5.83333 9.25385 5.08714 10 4.16666 10C3.24619 10 2.5 9.25385 2.5 8.33337C2.5 7.4129 3.24619 6.66671 4.16666 6.66671C5.08714 6.66671 5.83333 7.4129 5.83333 8.33337Z" stroke="black" stroke-width="1.5" stroke-linecap="round" stroke-linejoin="round"/>
</svg>
