<svg xmlns="http://www.w3.org/2000/svg" xmlns:xlink="http://www.w3.org/1999/xlink" version="1.1" x="0px" y="0px" viewBox="0 0 64 80" style="enable-background:new 0 0 64 64;" xml:space="preserve"><g><g><g><path d="M41.1,58.6H0.97C0.43,58.6,0,58.17,0,57.63v-5.06c0-11.6,9.44-21.03,21.03-21.03s21.03,9.44,21.03,21.03v5.06     C42.07,58.17,41.63,58.6,41.1,58.6z M1.94,56.66h38.19v-4.09c0-10.53-8.57-19.09-19.09-19.09S1.94,42.04,1.94,52.57V56.66z"/></g><g><path d="M21.03,29.61c-6.28,0-11.38-5.43-11.38-12.1c0-6.67,5.11-12.1,11.38-12.1c6.28,0,11.38,5.43,11.38,12.1     C32.41,24.18,27.31,29.61,21.03,29.61z M21.03,7.34c-5.21,0-9.44,4.56-9.44,10.16s4.24,10.16,9.44,10.16     c5.21,0,9.44-4.56,9.44-10.16S26.24,7.34,21.03,7.34z"/></g></g><g><g><path d="M63.03,51.54H41c-0.54,0-0.97-0.43-0.97-0.97c0-0.54,0.43-0.97,0.97-0.97h21.06v-2.44c0-3.35-1.3-6.5-3.67-8.88     c-2.37-2.37-5.53-3.67-8.88-3.67c-4.75,0-9.04,2.63-11.19,6.87c-0.24,0.48-0.82,0.67-1.3,0.43c-0.48-0.24-0.67-0.83-0.43-1.3     c2.48-4.89,7.43-7.93,12.92-7.93c3.87,0,7.51,1.51,10.25,4.24C62.49,39.66,64,43.3,64,47.16v3.41     C64,51.11,63.57,51.54,63.03,51.54z"/></g><g><path d="M49.51,32c-4.4,0-7.98-3.8-7.98-8.47s3.58-8.47,7.98-8.47c4.4,0,7.99,3.8,7.99,8.47S53.91,32,49.51,32z M49.51,17     c-3.33,0-6.05,2.93-6.05,6.53c0,3.6,2.71,6.53,6.05,6.53c3.33,0,6.05-2.93,6.05-6.53C55.56,19.93,52.84,17,49.51,17z"/></g></g></g><text x="0" y="79" fill="#000000" font-size="5px" font-weight="bold" font-family="'Helvetica Neue', Helvetica, Arial-Unicode, Arial, Sans-serif">Created by Icon Shop</text><text x="0" y="84" fill="#000000" font-size="5px" font-weight="bold" font-family="'Helvetica Neue', Helvetica, Arial-Unicode, Arial, Sans-serif">from the Noun Project</text></svg>