<?xml version="1.0" encoding="UTF-8"?>
<svg width="1200pt" height="1200pt" version="1.1" viewBox="0 0 1200 1200" xmlns="http://www.w3.org/2000/svg">
 <g>
  <path d="m1050 400c0 82.844-67.156 150-150 150s-150-67.156-150-150 67.156-150 150-150 150 67.156 150 150"/>
  <path d="m925 625h-25c-38.023-0.050781-75.645 7.8125-110.46 23.09-34.82 15.281-66.078 37.641-91.785 65.66 50.258 68.512 77.32 151.28 77.25 236.25v25h425v-75c0.027344-48.281-12.664-95.715-36.797-137.53-24.133-41.82-58.852-76.539-100.67-100.67-41.816-24.133-89.25-36.824-137.53-36.797z"/>
  <path d="m550 350c0 110.46-89.543 200-200 200s-200-89.543-200-200 89.543-200 200-200 200 89.543 200 200"/>
  <path d="m375 625h-50c-57.051 0-113.09 15.016-162.5 43.539-49.406 28.523-90.434 69.551-118.96 118.96-28.523 49.41-43.539 105.45-43.539 162.5v100h700v-100c-0.027344-86.188-34.277-168.84-95.223-229.78-60.941-60.945-143.59-95.195-229.78-95.223z"/>
 </g>
</svg>
