<svg width="20" height="20" viewBox="0 0 20 20" fill="none" xmlns="http://www.w3.org/2000/svg">
<path d="M14.8214 7.46427H14.825C14.9214 7.46427 15 7.39041 15 7.29976V6.85154C15 6.50404 14.7839 6.18844 14.4482 6.04407C14.4482 6.04407 11.6232 4.97639 11.2518 4.90421C10.9946 4.85385 10.8125 4.63897 10.8125 4.39219V4.01616C10.8929 4.01112 10.9554 3.94901 10.9554 3.87179V3.85668C10.9554 3.78114 10.8929 3.71734 10.8125 3.71231V3.50414H10.8304C10.9196 3.50414 10.9929 3.43532 10.9929 3.35138V2.15276C10.9929 2.06883 10.9196 2 10.8304 2H9.16964C9.08036 2 9.00714 2.06883 9.00714 2.15276V3.35306C9.00714 3.437 9.08036 3.50582 9.16964 3.50582H9.1875V3.71399C9.10714 3.71902 9.04464 3.78114 9.04464 3.85836V3.87347C9.04464 3.94901 9.10714 4.0128 9.1875 4.01784V4.39387C9.1875 4.64065 9.00536 4.85552 8.74821 4.90589C8.37679 4.97807 5.55179 6.04575 5.55179 6.04575C5.21607 6.19012 5 6.50572 5 6.85322V7.30144C5 7.39209 5.07857 7.46595 5.175 7.46595H5.17857C5.275 7.46595 5.35357 7.53982 5.35357 7.63047V8.00818H5.28036C5.20536 8.00818 5.14464 8.06526 5.14464 8.13577V9.32263C5.14464 9.39314 5.20536 9.45021 5.28036 9.45021H5.35357V12.5458H5.28036C5.20536 12.5458 5.14464 12.6029 5.14464 12.6734V13.8602C5.14464 13.9308 5.20536 13.9878 5.28036 13.9878H5.35357V14.3555H5.28036C5.20536 14.3555 5.14464 14.4125 5.14464 14.4831V15.6699C5.14464 15.7404 5.20536 15.7975 5.28036 15.7975H5.35357V16.1064C5.35357 16.197 5.275 16.2709 5.17857 16.2709H5.175C5.07857 16.2709 5 16.3448 5 16.4354V17.112C5 17.6021 5.42321 18 5.94464 18L9.71071 17.9547C9.90179 17.9463 10.0946 17.9463 10.2875 17.9547L14.0536 18C14.575 18 14.9982 17.6021 14.9982 17.112V16.4354C14.9982 16.3448 14.9196 16.2709 14.8232 16.2709H14.8196C14.7232 16.2709 14.6446 16.197 14.6446 16.1064V15.7975H14.7179C14.7929 15.7975 14.8536 15.7404 14.8536 15.6699V14.4831C14.8536 14.4125 14.7929 14.3555 14.7179 14.3555H14.6446V13.9878H14.7179C14.7929 13.9878 14.8536 13.9308 14.8536 13.8602V12.6734C14.8536 12.6029 14.7929 12.5458 14.7179 12.5458H14.6446V9.45021H14.7179C14.7929 9.45021 14.8536 9.39314 14.8536 9.32263V8.13577C14.8536 8.06526 14.7929 8.00818 14.7179 8.00818H14.6446V7.63047C14.6464 7.53814 14.725 7.46427 14.8214 7.46427Z" fill="#0657C9"/>
</svg>
