<svg width="20" height="20" viewBox="0 0 20 20" fill="none" xmlns="http://www.w3.org/2000/svg">
<path opacity="0.4" fill-rule="evenodd" clip-rule="evenodd" d="M4.92551 17.157C4.92551 16.457 5.49217 15.8904 6.19217 15.8904C6.88384 15.8904 7.45051 16.457 7.45051 17.157C7.45051 17.8487 6.88384 18.4154 6.19217 18.4154C5.49217 18.4154 4.92551 17.8487 4.92551 17.157ZM14.3005 17.157C14.3005 16.457 14.8672 15.8904 15.5672 15.8904C16.2588 15.8904 16.8255 16.457 16.8255 17.157C16.8255 17.8487 16.2588 18.4154 15.5672 18.4154C14.8672 18.4154 14.3005 17.8487 14.3005 17.157Z" fill="#FB5454"/>
<path fill-rule="evenodd" clip-rule="evenodd" d="M16.8257 5.29078C17.334 5.29078 17.6673 5.46578 18.0007 5.84912C18.334 6.23245 18.3923 6.78245 18.3173 7.28162L17.5257 12.7483C17.3757 13.7991 16.4757 14.5733 15.4173 14.5733H6.32567C5.21734 14.5733 4.30067 13.7233 4.209 12.6241L3.44234 3.53995L2.184 3.32328C1.85067 3.26495 1.61734 2.93995 1.67567 2.60662C1.734 2.26495 2.059 2.03995 2.40067 2.08995L4.38817 2.38995C4.6715 2.44078 4.87984 2.67328 4.90484 2.95662L5.06317 4.82328C5.08817 5.09078 5.30484 5.29078 5.5715 5.29078H16.8257ZM11.7757 9.62328H14.084C14.434 9.62328 14.709 9.33995 14.709 8.99828C14.709 8.64828 14.434 8.37328 14.084 8.37328H11.7757C11.4257 8.37328 11.1507 8.64828 11.1507 8.99828C11.1507 9.33995 11.4257 9.62328 11.7757 9.62328Z" fill="#FB5454"/>
</svg>
