<svg width="170" height="36" viewBox="0 0 934 213" fill="none" xmlns="http://www.w3.org/2000/svg">
<path d="M100.402 29.3676C104.252 25.5723 108.126 21.7966 111.952 17.9739C117.731 12.2084 123.479 6.40777 129.246 0.626677C129.427 0.446507 129.646 0.309422 130.007 0.0313338C132.293 2.26779 134.59 4.46116 136.825 6.70936C147.509 17.453 158.126 28.2631 168.865 38.9519C181.321 51.3522 190.812 65.5543 195.878 82.5098C212.043 136.604 181.952 190.102 132.038 207.555C122.499 210.889 112.614 213.229 102.424 212.982C95.9539 212.825 89.6793 212.59 82.994 211.39C41.1486 201.962 14.5626 176.449 3.05147 135.268C0.34229 125.574 -0.155636 115.516 0.565768 105.552C2.31047 81.4876 11.3359 60.3881 28.1281 42.943C41.9406 28.6039 56.1609 14.6486 70.2087 0.520925C70.3381 0.391673 70.5302 0.325089 71.0947 0C73.506 2.51454 75.9446 5.127 78.4578 7.66112C85.3974 14.6682 92.3683 21.6439 99.3354 28.6274C99.5588 28.8506 99.845 29.0191 100.1 29.211C98.1552 31.2986 96.2694 33.445 94.2581 35.466C81.8256 47.9721 69.3383 60.4156 56.9294 72.9452C46.3083 83.6692 40.5331 96.5944 40.4233 111.705C40.2783 130.968 47.8922 146.87 62.7398 159.066C75.776 169.775 90.9137 174.157 107.706 172.121C120.907 170.519 132.347 164.922 141.816 155.623C155.542 142.146 161.776 125.692 159.902 106.539C158.628 93.5198 153.045 82.2944 143.788 72.9726C129.336 58.4259 114.865 43.9026 100.406 29.3676H100.402Z" fill="url(#paint0_linear_501_2)"/>
<path d="M137.079 117.683C136.909 122.386 135.074 126.698 132.87 130.736C127.236 141.052 118.202 147.106 106.798 149.207C91.9205 151.949 76.9478 144.458 69.3785 131.818C65.4063 125.182 63.744 118.078 64.3244 110.508C64.9167 102.81 67.9807 95.9939 73.3941 90.4359C81.836 81.7649 90.495 73.3088 99.0317 64.7315C100.256 63.5012 101.235 63.4192 102.502 64.6807C110.893 73.0393 119.382 81.3001 127.71 89.7133C132.385 94.4355 135.389 100.122 136.55 106.692C137.079 110.457 137.411 114.129 137.079 117.683Z" fill="#39BFFF"/>
<path d="M285.31 153H250.51V64.2H284.11C310.15 64.2 328.27 82.44 328.27 108.84C328.27 134.76 310.63 153 285.31 153ZM282.19 82.2H269.95V135H283.39C298.75 135 307.75 125.28 307.75 108.84C307.75 92.04 298.27 82.2 282.19 82.2ZM367.359 154.56C349.239 154.56 336.279 141.36 336.279 122.88C336.279 104.16 348.879 91.08 366.999 91.08C385.839 91.08 397.599 103.44 397.599 123V127.68L354.039 127.92C355.119 135.84 359.559 139.56 367.719 139.56C374.679 139.56 379.599 137.04 380.919 132.72H397.839C395.679 146.04 383.799 154.56 367.359 154.56ZM367.119 106.08C359.799 106.08 355.719 109.32 354.279 116.52H379.239C379.239 110.16 374.559 106.08 367.119 106.08ZM427.022 153H408.542V62.52H427.022V153ZM450.006 83.64C444.126 83.64 439.446 78.96 439.446 73.08C439.446 67.2 444.126 62.64 450.006 62.64C455.766 62.64 460.446 67.2 460.446 73.08C460.446 78.96 455.766 83.64 450.006 83.64ZM440.886 153V93H459.366V153H440.886ZM490.27 153L466.87 93H486.79L494.11 114C497.11 122.76 499.51 130.32 499.99 133.08C500.71 129.6 503.35 121.8 506.35 114L514.39 93H533.59L508.51 153H490.27ZM565.991 154.56C547.871 154.56 534.911 141.36 534.911 122.88C534.911 104.16 547.511 91.08 565.631 91.08C584.471 91.08 596.231 103.44 596.231 123V127.68L552.671 127.92C553.751 135.84 558.191 139.56 566.351 139.56C573.311 139.56 578.231 137.04 579.551 132.72H596.471C594.311 146.04 582.431 154.56 565.991 154.56ZM565.751 106.08C558.431 106.08 554.351 109.32 552.911 116.52H577.871C577.871 110.16 573.191 106.08 565.751 106.08ZM648.455 93V110.4H642.575C632.015 110.4 625.655 115.08 625.655 126.96V153H607.175V93.12H624.575L625.535 102C628.055 96.12 633.335 92.16 641.375 92.16C643.535 92.16 645.935 92.4 648.455 93ZM654.758 181.8V166.32H664.958C671.198 166.32 673.838 164.4 676.238 157.92L677.318 155.04L653.198 93H672.998L686.078 131.52L700.598 93H719.798L689.318 166.08C684.278 178.32 677.558 183.48 666.998 183.48C662.558 183.48 658.358 182.88 654.758 181.8Z" fill="#0657C9"/>
<path d="M724.769 90C724.769 73.92 738.329 62.52 757.409 62.52C776.489 62.52 788.489 73.08 788.489 89.88H769.169C769.169 83.64 764.489 79.8 757.169 79.8C749.249 79.8 744.209 83.4 744.209 89.28C744.209 94.68 746.969 97.32 753.209 98.64L766.529 101.4C782.369 104.64 789.929 112.2 789.929 126.24C789.929 143.4 776.489 154.56 756.089 154.56C736.289 154.56 723.449 143.88 723.449 127.2H742.769C742.769 133.68 747.569 137.28 756.209 137.28C764.969 137.28 770.489 133.8 770.489 128.16C770.489 123.24 768.209 120.72 762.329 119.52L748.769 116.76C732.929 113.52 724.769 104.52 724.769 90ZM840.374 93H858.854V153H841.454L840.254 146.28C836.534 151.2 829.094 154.56 821.894 154.56C808.214 154.56 799.814 145.44 799.814 130.68V93H818.294V123.96C818.294 133.8 821.654 138.12 829.214 138.12C837.134 138.12 840.374 134.04 840.374 124.2V93ZM889.762 153L866.362 93H886.282L893.602 114C896.602 122.76 899.002 130.32 899.482 133.08C900.202 129.6 902.842 121.8 905.842 114L913.882 93H933.082L908.002 153H889.762Z" fill="#01033C"/>
<defs>
<linearGradient id="paint0_linear_501_2" x1="100.268" y1="0" x2="100.268" y2="213" gradientUnits="userSpaceOnUse">
<stop stop-color="#0656C8"/>
<stop offset="1" stop-color="#008FFE"/>
</linearGradient>
</defs>
</svg>
