<svg width="36" height="36" viewBox="0 0 36 36" fill="none" xmlns="http://www.w3.org/2000/svg">
<circle cx="18" cy="18" r="18" fill="black"/>
<path d="M11.6216 12C8.5242 12 6 14.403 6 17.5004C6 20.6198 8.5683 23.0227 11.6216 23.0227C14.6749 23.0227 17.2432 20.6198 17.2432 17.5004C17.2432 14.403 14.719 12 11.6216 12ZM11.6216 21.4354C9.45011 21.4354 7.77465 19.6498 7.77465 17.5004C7.77465 15.3399 9.47215 13.5762 11.6216 13.5762C13.771 13.5762 15.4685 15.3399 15.4685 17.5003C15.4685 19.6498 13.7931 21.4354 11.6216 21.4354Z" fill="white"/>
<path d="M30.1831 17.5004C30.1831 14.403 27.6589 12 24.5615 12C21.4641 12 18.9399 14.403 18.9399 17.5004C18.9399 20.6198 21.5082 23.0227 24.5615 23.0227C25.4826 23.0238 26.3902 22.8018 27.2069 22.3759L28.5784 24L30.0048 22.7954L28.698 21.2479C29.6557 20.2356 30.1874 18.8938 30.1831 17.5004ZM24.5615 21.4355C22.39 21.4355 20.7146 19.6498 20.7146 17.5004C20.7146 15.3399 22.4121 13.5762 24.5615 13.5762C26.7109 13.5762 28.4084 15.3399 28.4084 17.5004C28.4108 18.38 28.1229 19.2358 27.5894 19.9351L26.7791 18.9756L25.3526 20.1801L26.129 21.0995C25.6364 21.322 25.102 21.4366 24.5615 21.4355Z" fill="white"/>
</svg>
