<svg width="170" height="36" viewBox="0 0 170 36" fill="none" xmlns="http://www.w3.org/2000/svg">
<path d="M18.0586 7.21432C12.0416 7.21432 7.138 11.9169 7.138 17.9785C7.138 24.0831 12.1272 28.7857 18.0586 28.7857C23.99 28.7857 28.9793 24.0831 28.9793 17.9785C28.9793 11.9169 24.0757 7.21432 18.0586 7.21432ZM18.0586 25.6794C13.8403 25.6794 10.5855 22.1849 10.5855 17.9785C10.5855 13.7504 13.8831 10.299 18.0586 10.299C22.2342 10.299 25.5318 13.7504 25.5318 17.9785C25.5318 22.1849 22.277 25.6794 18.0586 25.6794Z" fill="black"/>
<path d="M54.1167 17.9784C54.1167 11.9169 49.2131 7.21431 43.196 7.21431C37.179 7.21431 32.2754 11.9169 32.2754 17.9784C32.2754 24.0831 37.2646 28.7857 43.196 28.7857C44.9853 28.7877 46.7485 28.3534 48.335 27.5198L50.9994 30.6982L53.7704 28.3409L51.2317 25.3123C53.0922 23.3314 54.1251 20.7055 54.1167 17.9784ZM43.196 25.6794C38.9777 25.6794 35.7229 22.1849 35.7229 17.9784C35.7229 13.7504 39.0205 10.299 43.196 10.299C47.3716 10.299 50.6692 13.7504 50.6692 17.9784C50.6738 19.6998 50.1145 21.3746 49.0781 22.7432L47.504 20.8654L44.7329 23.2228L46.2411 25.0219C45.2843 25.4574 44.246 25.6816 43.196 25.6794Z" fill="black"/>
<path d="M83.2426 14.9605H84.1129V21.0394H83.2426V18.4091H80.1094V21.0394H79.2391V14.9605H80.1094V17.5908H83.2426V14.9605Z" fill="black"/>
<path d="M85.7375 21.0394V14.9605H86.6079V19.9405H86.6659L89.567 14.9605H90.7274V21.0394H89.8571V16.0594H89.7991L86.898 21.0394H85.7375Z" fill="black"/>
<path d="M95.9493 21.0394V18.7598C95.4912 18.9578 94.9972 19.0574 94.4987 19.0521C93.0482 19.0521 92.2359 18.2337 92.2359 16.9478V14.9605H93.1062V16.9478C93.1062 17.7662 93.5704 18.2337 94.4987 18.2337C95.079 18.2337 95.4851 18.1753 95.9493 17.9415V14.9605H96.8196V21.0394H95.9493Z" fill="black"/>
<path d="M103.55 18.2922H99.036C99.1288 19.6366 99.8599 20.338 100.939 20.338C101.635 20.338 102.158 20.0457 102.506 19.4613H103.434C103.028 20.5718 102.1 21.1563 100.939 21.1563C99.3145 21.1563 98.154 20.0458 98.154 18C98.154 15.9542 99.3145 14.8436 100.881 14.8436C102.738 14.8436 103.608 16.4218 103.608 17.7077C103.608 17.904 103.589 18.0999 103.55 18.2922ZM102.726 17.4739C102.645 16.5387 102.065 15.6619 100.881 15.6619C99.7438 15.6619 99.1869 16.4218 99.0592 17.4739H102.726Z" fill="black"/>
<path d="M104.943 21.0394V14.9605H108.772V15.7788H105.813V21.0394H104.943Z" fill="black"/>
<path d="M108.946 17.9999C108.946 15.9542 110.107 14.8436 111.731 14.8436C113.356 14.8436 114.516 15.9542 114.516 17.9999C114.516 20.0457 113.356 21.1563 111.731 21.1563C110.107 21.1563 108.946 20.0457 108.946 17.9999ZM113.646 17.9999C113.646 16.4802 112.834 15.6619 111.731 15.6619C110.629 15.6619 109.817 16.4802 109.817 17.9999C109.817 19.5196 110.629 20.338 111.731 20.338C112.834 20.338 113.646 19.5196 113.646 17.9999Z" fill="black"/>
<path d="M117.707 21.0979V20.186H117.823C118.578 20.186 118.81 19.5431 118.81 17.4155V14.9605H123.045V21.0394H122.175V15.7788H119.68V17.4155C119.68 19.9873 119.274 21.0979 117.823 21.0979L117.707 21.0979Z" fill="black"/>
<path d="M124.67 21.0394V14.9605H125.54V19.9405H125.598L128.499 14.9605H129.66V21.0394H128.789V16.0594H128.731L125.83 21.0394H124.67Z" fill="black"/>
<path d="M131.284 21.0394V14.9605H132.155V20.2211H134.533V14.9605H135.404V20.2211H137.783V14.9605H138.653V21.0394H131.284Z" fill="black"/>
<path d="M144.281 14.9605H145.151V21.0394H144.281V18.4091H141.148V21.0394H140.278V14.9605H141.148V17.5908H144.281V14.9605Z" fill="black"/>
<path d="M151.882 18.2922H147.368C147.461 19.6366 148.192 20.338 149.271 20.338C149.967 20.338 150.49 20.0457 150.838 19.4613H151.766C151.36 20.5718 150.431 21.1563 149.271 21.1563C147.646 21.1563 146.486 20.0458 146.486 18C146.486 15.9542 147.646 14.8436 149.213 14.8436C151.07 14.8436 151.94 16.4218 151.94 17.7077C151.94 17.904 151.921 18.0999 151.882 18.2922ZM151.058 17.4739C150.977 16.5387 150.397 15.6619 149.213 15.6619C148.076 15.6619 147.519 16.4218 147.391 17.4739H151.058Z" fill="black"/>
<path d="M153.275 21.0394V14.9605H157.104V15.7788H154.145V21.0394H153.275Z" fill="black"/>
<path d="M157.278 17.9999C157.278 15.9542 158.439 14.8436 160.063 14.8436C161.688 14.8436 162.848 15.9542 162.848 17.9999C162.848 20.0457 161.688 21.1563 160.063 21.1563C158.439 21.1563 157.278 20.0457 157.278 17.9999ZM161.978 17.9999C161.978 16.4802 161.166 15.6619 160.063 15.6619C158.961 15.6619 158.148 16.4802 158.148 17.9999C158.148 19.5196 158.961 20.338 160.063 20.338C161.166 20.338 161.978 19.5196 161.978 17.9999Z" fill="black"/>
</svg>
