<svg width="36" height="36" viewBox="0 0 201 213" fill="none" xmlns="http://www.w3.org/2000/svg">
<path d="M100.402 29.3676C104.252 25.5723 108.126 21.7966 111.952 17.9739C117.731 12.2084 123.479 6.40777 129.246 0.626677C129.427 0.446507 129.646 0.309422 130.007 0.0313338C132.293 2.26779 134.59 4.46116 136.825 6.70936C147.509 17.453 158.126 28.2631 168.865 38.9519C181.321 51.3522 190.812 65.5543 195.878 82.5098C212.043 136.604 181.952 190.102 132.038 207.555C122.499 210.889 112.614 213.229 102.424 212.982C95.9539 212.825 89.6793 212.59 82.994 211.39C41.1486 201.962 14.5626 176.449 3.05147 135.268C0.34229 125.574 -0.155636 115.516 0.565768 105.552C2.31047 81.4876 11.3359 60.3881 28.1281 42.943C41.9406 28.6039 56.1609 14.6486 70.2087 0.520925C70.3381 0.391673 70.5302 0.325089 71.0947 0C73.506 2.51454 75.9446 5.127 78.4578 7.66112C85.3974 14.6682 92.3683 21.6439 99.3354 28.6274C99.5588 28.8506 99.845 29.0191 100.1 29.211C98.1552 31.2986 96.2694 33.445 94.2581 35.466C81.8256 47.9721 69.3383 60.4156 56.9294 72.9452C46.3083 83.6692 40.5331 96.5944 40.4233 111.705C40.2783 130.968 47.8922 146.87 62.7398 159.066C75.776 169.775 90.9137 174.157 107.706 172.121C120.907 170.519 132.347 164.922 141.816 155.623C155.542 142.146 161.776 125.692 159.902 106.539C158.628 93.5198 153.045 82.2944 143.788 72.9726C129.336 58.4259 114.865 43.9026 100.406 29.3676H100.402Z" fill="url(#paint0_linear_132_226)"/>
<path d="M137.079 117.683C136.909 122.386 135.074 126.698 132.87 130.736C127.236 141.052 118.202 147.106 106.798 149.207C91.9205 151.949 76.9478 144.458 69.3785 131.818C65.4063 125.182 63.744 118.078 64.3244 110.508C64.9167 102.81 67.9807 95.9939 73.3941 90.4359C81.836 81.7649 90.495 73.3088 99.0317 64.7315C100.256 63.5012 101.235 63.4192 102.502 64.6807C110.893 73.0393 119.382 81.3001 127.71 89.7133C132.385 94.4355 135.389 100.122 136.55 106.692C137.079 110.457 137.411 114.129 137.079 117.683Z" fill="#39BFFF"/>
<defs>
<linearGradient id="paint0_linear_132_226" x1="100.268" y1="0" x2="100.268" y2="213" gradientUnits="userSpaceOnUse">
<stop stop-color="#0656C8"/>
<stop offset="1" stop-color="#008FFE"/>
</linearGradient>
</defs>
</svg>
