<svg width="94" height="47" viewBox="0 0 94 47" fill="none" xmlns="http://www.w3.org/2000/svg">
<path fill-rule="evenodd" clip-rule="evenodd" d="M0 21.3797C0 9.34024 9.81149 0 21.851 0C33.8905 0 43.7019 9.34024 43.7019 21.3797C43.7019 33.5048 33.719 42.8451 21.851 42.8451C9.9829 42.8451 0 33.5048 0 21.3797ZM6.89804 21.3797C6.89804 29.7345 13.4105 36.6753 21.851 36.6753C30.2914 36.6753 36.8039 29.7345 36.8039 21.3797C36.8039 12.982 30.2058 6.12683 21.851 6.12683C13.4961 6.12683 6.89804 12.982 6.89804 21.3797ZM72.1489 0C84.1884 0 93.9999 9.34024 93.9999 21.3797C94.0168 26.7962 91.9499 32.0117 88.2273 35.9463L93.307 41.9616L87.7624 46.6437L82.4314 40.3308C79.257 41.9865 75.7291 42.8491 72.1489 42.8451C60.2808 42.8451 50.2979 33.5048 50.2979 21.3797C50.2979 9.34024 60.1094 0 72.1489 0ZM57.196 21.3797C57.196 29.7345 63.7084 36.6753 72.1489 36.6753C74.2497 36.6797 76.3272 36.2344 78.2417 35.3694L75.2241 31.796L80.7686 27.1139L83.9182 30.8435C85.9919 28.1252 87.111 24.7987 87.1019 21.3797C87.1019 12.982 80.5037 6.12683 72.1489 6.12683C63.7941 6.12683 57.196 12.982 57.196 21.3797Z" fill="black"/>
</svg>
